<?xml version="1.0" encoding="utf-8"?>
<!-- Generator: Adobe Illustrator 19.0.0, SVG Export Plug-In . SVG Version: 6.00 Build 0)  -->
<svg version="1.2" baseProfile="tiny" id="Layer_1" xmlns="http://www.w3.org/2000/svg" xmlns:xlink="http://www.w3.org/1999/xlink"
	 x="0px" y="0px" viewBox="0 0 65.3 25.4" xml:space="preserve">
<g id="XMLID_34_">
	<path id="XMLID_121_" fill="#FFFFFF" d="M13,12.6c0.1,0.3,0.3,0.6,0.5,1c0.2,0.4,0.4,0.8,0.6,1.2c0.2,0.4,0.4,0.9,0.6,1.4
		c0.2,0.5,0.4,0.9,0.6,1.3c0.2-0.4,0.4-0.8,0.6-1.3s0.4-0.9,0.6-1.4s0.4-0.9,0.6-1.2c0.2-0.4,0.3-0.7,0.5-1H19
		c0.1,0.5,0.2,1.1,0.2,1.8s0.1,1.4,0.2,2.1s0.1,1.5,0.1,2.2c0,0.7,0.1,1.4,0.1,2.1h-1.8c0-0.8-0.1-1.7-0.1-2.6
		c0-0.9-0.1-1.9-0.2-2.8c-0.1,0.3-0.3,0.7-0.5,1.1c-0.2,0.4-0.3,0.8-0.5,1.2c-0.2,0.4-0.3,0.8-0.5,1.1c-0.2,0.4-0.3,0.7-0.4,0.9
		h-1.3c-0.1-0.3-0.2-0.6-0.4-0.9c-0.2-0.4-0.3-0.7-0.5-1.1c-0.2-0.4-0.3-0.8-0.5-1.2c-0.2-0.4-0.3-0.8-0.5-1.1
		c-0.1,0.9-0.1,1.9-0.2,2.8c0,0.9-0.1,1.8-0.1,2.6h-1.8c0-0.6,0.1-1.3,0.1-2.1s0.1-1.5,0.1-2.2s0.1-1.4,0.2-2.1s0.1-1.3,0.2-1.8H13z
		"/>
	<path id="XMLID_123_" fill="#FFFFFF" d="M26.3,20.7c-0.1-0.3-0.2-0.6-0.3-0.9s-0.2-0.6-0.3-0.9h-3.2c-0.1,0.3-0.2,0.6-0.3,0.9
		c-0.1,0.3-0.2,0.6-0.3,0.9h-1.9c0.3-0.9,0.6-1.7,0.9-2.4c0.3-0.7,0.5-1.4,0.8-2.1c0.3-0.7,0.5-1.3,0.8-1.9c0.3-0.6,0.5-1.2,0.8-1.7
		H25c0.3,0.6,0.5,1.1,0.8,1.7c0.3,0.6,0.5,1.2,0.8,1.9c0.3,0.7,0.5,1.4,0.8,2.1s0.6,1.6,0.9,2.4H26.3z M24.1,14.4
		c0,0.1-0.1,0.3-0.2,0.5c-0.1,0.2-0.2,0.4-0.3,0.7c-0.1,0.3-0.2,0.6-0.3,0.9c-0.1,0.3-0.3,0.7-0.4,1h2.3c-0.1-0.4-0.2-0.7-0.4-1
		s-0.2-0.6-0.3-0.9c-0.1-0.3-0.2-0.5-0.3-0.7C24.2,14.7,24.2,14.6,24.1,14.4z"/>
	<path id="XMLID_126_" fill="#FFFFFF" d="M31.3,12.5c1.2,0,2.1,0.2,2.8,0.6c0.6,0.4,1,1.1,1,2.1c0,1-0.3,1.7-1,2.1
		c-0.7,0.4-1.6,0.7-2.8,0.7h-0.6v2.7h-1.8v-8c0.4-0.1,0.8-0.1,1.3-0.2C30.6,12.5,31,12.5,31.3,12.5z M31.5,14.1c-0.1,0-0.3,0-0.4,0
		s-0.2,0-0.3,0v2.4h0.6c0.6,0,1.1-0.1,1.4-0.3c0.3-0.2,0.5-0.5,0.5-1c0-0.2,0-0.4-0.1-0.6c-0.1-0.1-0.2-0.3-0.4-0.4
		c-0.2-0.1-0.3-0.2-0.6-0.2C32,14.1,31.7,14.1,31.5,14.1z"/>
	<path id="XMLID_129_" fill="#FFFFFF" d="M39.2,20.9c-0.6,0-1.1-0.1-1.5-0.2c-0.4-0.2-0.8-0.4-1-0.7c-0.3-0.3-0.5-0.6-0.6-1
		c-0.1-0.4-0.2-0.8-0.2-1.3v-5.1h1.8v4.9c0,0.3,0,0.6,0.1,0.8s0.2,0.4,0.3,0.6c0.1,0.1,0.3,0.2,0.5,0.3s0.4,0.1,0.6,0.1
		c0.4,0,0.8-0.1,1.1-0.4c0.3-0.3,0.4-0.7,0.4-1.4v-4.9h1.8v5.1c0,0.5-0.1,0.9-0.2,1.3c-0.1,0.4-0.3,0.7-0.6,1
		c-0.3,0.3-0.6,0.5-1,0.7C40.3,20.8,39.8,20.9,39.2,20.9z"/>
	<path id="XMLID_131_" fill="#FFFFFF" d="M49.9,12.6v1.6h-2.4v6.6h-1.8v-6.6h-2.4v-1.6H49.9z"/>
	<path id="XMLID_133_" fill="#FFFFFF" d="M58.1,16.7c0,0.7-0.1,1.3-0.3,1.8s-0.5,1-0.8,1.3c-0.4,0.4-0.8,0.6-1.3,0.8
		c-0.5,0.2-1,0.3-1.6,0.3c-0.6,0-1.1-0.1-1.6-0.3c-0.5-0.2-0.9-0.4-1.3-0.8c-0.4-0.4-0.7-0.8-0.9-1.3S50,17.4,50,16.7
		c0-0.7,0.1-1.3,0.3-1.8s0.5-1,0.9-1.3c0.4-0.4,0.8-0.6,1.3-0.8c0.5-0.2,1-0.3,1.5-0.3c0.6,0,1.1,0.1,1.6,0.3
		c0.5,0.2,0.9,0.5,1.3,0.8c0.4,0.4,0.7,0.8,0.9,1.3S58.1,16,58.1,16.7z M51.9,16.7c0,0.4,0,0.8,0.1,1.1c0.1,0.3,0.2,0.6,0.4,0.8
		c0.2,0.2,0.4,0.4,0.7,0.5c0.3,0.1,0.6,0.2,0.9,0.2c0.3,0,0.6-0.1,0.9-0.2c0.3-0.1,0.5-0.3,0.7-0.5s0.3-0.5,0.4-0.8
		c0.1-0.3,0.1-0.7,0.1-1.1c0-0.4,0-0.8-0.1-1.1s-0.2-0.6-0.4-0.8c-0.2-0.2-0.4-0.4-0.7-0.5c-0.3-0.1-0.6-0.2-0.9-0.2
		c-0.3,0-0.6,0.1-0.9,0.2c-0.3,0.1-0.5,0.3-0.7,0.5c-0.2,0.2-0.3,0.5-0.4,0.8S51.9,16.3,51.9,16.7z"/>
</g>
<polygon id="XMLID_140_" fill="#C3A974" points="0.1,9.3 4.4,25.4 65.4,25.4 65.4,9.2 "/>
<g id="XMLID_36_">
	<path id="XMLID_80_" fill="#FFFFFF" d="M13.5,12.6c0.1,0.3,0.3,0.6,0.5,1c0.2,0.4,0.4,0.8,0.6,1.2c0.2,0.4,0.4,0.9,0.6,1.4
		c0.2,0.5,0.4,0.9,0.6,1.3c0.2-0.4,0.4-0.8,0.6-1.3s0.4-0.9,0.6-1.4s0.4-0.9,0.6-1.2c0.2-0.4,0.3-0.7,0.5-1h1.7
		c0.1,0.5,0.2,1.1,0.2,1.8s0.1,1.4,0.2,2.1s0.1,1.5,0.1,2.2c0,0.7,0.1,1.4,0.1,2.1h-1.8c0-0.8-0.1-1.7-0.1-2.6
		c0-0.9-0.1-1.9-0.2-2.8c-0.1,0.3-0.3,0.7-0.5,1.1c-0.2,0.4-0.3,0.8-0.5,1.2c-0.2,0.4-0.3,0.8-0.5,1.1c-0.2,0.4-0.3,0.7-0.4,0.9H15
		c-0.1-0.3-0.2-0.6-0.4-0.9c-0.2-0.4-0.3-0.7-0.5-1.1c-0.2-0.4-0.3-0.8-0.5-1.2c-0.2-0.4-0.3-0.8-0.5-1.1c-0.1,0.9-0.1,1.9-0.2,2.8
		c0,0.9-0.1,1.8-0.1,2.6h-1.8c0-0.6,0.1-1.3,0.1-2.1s0.1-1.5,0.1-2.2s0.1-1.4,0.2-2.1s0.1-1.3,0.2-1.8H13.5z"/>
	<path id="XMLID_82_" fill="#FFFFFF" d="M26.9,20.7c-0.1-0.3-0.2-0.6-0.3-0.9s-0.2-0.6-0.3-0.9h-3.2c-0.1,0.3-0.2,0.6-0.3,0.9
		c-0.1,0.3-0.2,0.6-0.3,0.9h-1.9c0.3-0.9,0.6-1.7,0.9-2.4c0.3-0.7,0.5-1.4,0.8-2.1c0.3-0.7,0.5-1.3,0.8-1.9c0.3-0.6,0.5-1.2,0.8-1.7
		h1.7c0.3,0.6,0.5,1.1,0.8,1.7c0.3,0.6,0.5,1.2,0.8,1.9c0.3,0.7,0.5,1.4,0.8,2.1s0.6,1.6,0.9,2.4H26.9z M24.7,14.4
		c0,0.1-0.1,0.3-0.2,0.5c-0.1,0.2-0.2,0.4-0.3,0.7c-0.1,0.3-0.2,0.6-0.3,0.9c-0.1,0.3-0.3,0.7-0.4,1h2.3c-0.1-0.4-0.2-0.7-0.4-1
		s-0.2-0.6-0.3-0.9c-0.1-0.3-0.2-0.5-0.3-0.7C24.8,14.7,24.7,14.6,24.7,14.4z"/>
	<path id="XMLID_85_" fill="#FFFFFF" d="M34.5,12.6v1.6h-2.4v6.6h-1.8v-6.6h-2.4v-1.6H34.5z"/>
	<path id="XMLID_87_" fill="#FFFFFF" d="M42.7,16.7c0,0.7-0.1,1.3-0.3,1.8s-0.5,1-0.8,1.3c-0.4,0.4-0.8,0.6-1.3,0.8
		c-0.5,0.2-1,0.3-1.6,0.3c-0.6,0-1.1-0.1-1.6-0.3c-0.5-0.2-0.9-0.4-1.3-0.8c-0.4-0.4-0.7-0.8-0.9-1.3s-0.3-1.1-0.3-1.8
		c0-0.7,0.1-1.3,0.3-1.8s0.5-1,0.9-1.3c0.4-0.4,0.8-0.6,1.3-0.8c0.5-0.2,1-0.3,1.5-0.3c0.6,0,1.1,0.1,1.6,0.3
		c0.5,0.2,0.9,0.5,1.3,0.8c0.4,0.4,0.7,0.8,0.9,1.3S42.7,16,42.7,16.7z M36.5,16.7c0,0.4,0,0.8,0.1,1.1c0.1,0.3,0.2,0.6,0.4,0.8
		c0.2,0.2,0.4,0.4,0.7,0.5c0.3,0.1,0.6,0.2,0.9,0.2c0.3,0,0.6-0.1,0.9-0.2c0.3-0.1,0.5-0.3,0.7-0.5s0.3-0.5,0.4-0.8
		c0.1-0.3,0.1-0.7,0.1-1.1c0-0.4,0-0.8-0.1-1.1s-0.2-0.6-0.4-0.8c-0.2-0.2-0.4-0.4-0.7-0.5C39.3,14.1,39,14,38.7,14
		c-0.3,0-0.6,0.1-0.9,0.2c-0.3,0.1-0.5,0.3-0.7,0.5c-0.2,0.2-0.3,0.5-0.4,0.8S36.5,16.3,36.5,16.7z"/>
	<path id="XMLID_90_" fill="#FFFFFF" d="M49.2,19.2v1.6h-5.4v-8.2h1.8v6.6H49.2z"/>
	<path id="XMLID_92_" fill="#FFFFFF" d="M55.8,20.7c-0.1-0.3-0.2-0.6-0.3-0.9s-0.2-0.6-0.3-0.9H52c-0.1,0.3-0.2,0.6-0.3,0.9
		c-0.1,0.3-0.2,0.6-0.3,0.9h-1.9c0.3-0.9,0.6-1.7,0.9-2.4c0.3-0.7,0.5-1.4,0.8-2.1c0.3-0.7,0.5-1.3,0.8-1.9c0.3-0.6,0.5-1.2,0.8-1.7
		h1.7c0.3,0.6,0.5,1.1,0.8,1.7c0.3,0.6,0.5,1.2,0.8,1.9c0.3,0.7,0.5,1.4,0.8,2.1s0.6,1.6,0.9,2.4H55.8z M53.6,14.4
		c0,0.1-0.1,0.3-0.2,0.5c-0.1,0.2-0.2,0.4-0.3,0.7c-0.1,0.3-0.2,0.6-0.3,0.9c-0.1,0.3-0.3,0.7-0.4,1h2.3c-0.1-0.4-0.2-0.7-0.4-1
		s-0.2-0.6-0.3-0.9c-0.1-0.3-0.2-0.5-0.3-0.7C53.7,14.7,53.7,14.6,53.6,14.4z"/>
</g>
<g id="XMLID_101_">
	<path id="XMLID_107_" fill="#6C6D6F" d="M35.1,4.8c-0.1,0-0.2,0-0.3,0c-0.1,0-0.2,0-0.3,0c-0.1,0-0.2,0-0.2-0.1
		c-0.1,0-0.1,0-0.2-0.1l0.1-0.5c0.1,0,0.2,0.1,0.3,0.1c0.1,0,0.3,0.1,0.5,0.1c0.3,0,0.4,0,0.6-0.1s0.2-0.2,0.2-0.4
		c0-0.1,0-0.2-0.1-0.3s-0.1-0.1-0.2-0.2c-0.1,0-0.2-0.1-0.3-0.1s-0.2,0-0.3,0h-0.2V2.7H35c0.1,0,0.1,0,0.2,0s0.1,0,0.2-0.1
		c0.1,0,0.1-0.1,0.2-0.1c0-0.1,0.1-0.1,0.1-0.2c0-0.1,0-0.1,0-0.2c0-0.1-0.1-0.1-0.1-0.1c0,0-0.1-0.1-0.2-0.1c-0.1,0-0.1,0-0.2,0
		c-0.1,0-0.3,0-0.4,0.1c-0.1,0-0.2,0.1-0.3,0.1l-0.2-0.4c0,0,0.1-0.1,0.2-0.1c0.1,0,0.1-0.1,0.2-0.1c0.1,0,0.2-0.1,0.3-0.1
		s0.2,0,0.3,0c0.2,0,0.3,0,0.5,0.1c0.1,0,0.2,0.1,0.3,0.2c0.1,0.1,0.2,0.2,0.2,0.3c0,0.1,0.1,0.2,0.1,0.4c0,0.2,0,0.3-0.1,0.4
		s-0.2,0.2-0.3,0.3C36,2.9,36.1,3,36.2,3.2s0.2,0.3,0.2,0.5c0,0.1,0,0.3-0.1,0.4s-0.1,0.2-0.2,0.3c-0.1,0.1-0.2,0.2-0.4,0.2
		C35.5,4.7,35.3,4.8,35.1,4.8z"/>
	<path id="XMLID_116_" fill="#6C6D6F" d="M39.3,1.3c0.5,0,0.9,0.1,1.1,0.3c0.3,0.2,0.4,0.5,0.4,0.8c0,0.2,0,0.4-0.1,0.5
		c-0.1,0.1-0.2,0.3-0.3,0.3c-0.1,0.1-0.3,0.2-0.5,0.2s-0.4,0.1-0.7,0.1h-0.3v1.2h-0.6V1.4c0.1,0,0.3-0.1,0.5-0.1
		C39,1.3,39.1,1.3,39.3,1.3z M39.3,1.8c-0.2,0-0.3,0-0.4,0V3h0.3c0.3,0,0.5,0,0.7-0.1c0.2-0.1,0.2-0.2,0.2-0.5c0-0.1,0-0.2-0.1-0.3
		C40,2,40,2,39.9,1.9c-0.1,0-0.2-0.1-0.3-0.1C39.5,1.8,39.4,1.8,39.3,1.8z"/>
	<path id="XMLID_119_" fill="#6C6D6F" d="M43.6,4.7c0-0.1-0.1-0.3-0.1-0.4c0-0.1-0.1-0.3-0.1-0.4h-1.4c0,0.1-0.1,0.3-0.1,0.4
		c0,0.1-0.1,0.3-0.1,0.4H41c0.1-0.4,0.2-0.7,0.4-1s0.2-0.6,0.3-0.9s0.2-0.5,0.3-0.8c0.1-0.2,0.2-0.5,0.3-0.7H43
		c0.1,0.2,0.2,0.5,0.3,0.7c0.1,0.2,0.2,0.5,0.3,0.8c0.1,0.3,0.2,0.6,0.3,0.9s0.2,0.6,0.4,1H43.6z M42.6,2c-0.1,0.2-0.2,0.4-0.3,0.6
		c-0.1,0.2-0.2,0.5-0.3,0.8h1.1c-0.1-0.3-0.2-0.6-0.3-0.8C42.8,2.4,42.7,2.1,42.6,2z"/>
	<path id="XMLID_139_" fill="#6C6D6F" d="M44.8,1.3h0.6v3.4h-0.6V1.3z"/>
	<path id="XMLID_142_" fill="#6C6D6F" d="M48.5,4.7c-0.1-0.2-0.2-0.4-0.4-0.6c-0.1-0.2-0.3-0.4-0.4-0.6c-0.1-0.2-0.3-0.4-0.4-0.6
		c-0.2-0.2-0.3-0.4-0.4-0.5v2.4h-0.6V1.3h0.5c0.1,0.1,0.3,0.3,0.4,0.5c0.1,0.2,0.3,0.4,0.5,0.6S47.9,2.8,48,3
		c0.1,0.2,0.3,0.4,0.4,0.6V1.3H49v3.4H48.5z"/>
	<path id="XMLID_144_" fill="#6C6D6F" d="M49.9,4.7V1.3H52v0.5h-1.6v0.8h1.4v0.5h-1.4v1h1.7v0.5H49.9z M51.8,0.3L51,1.1l-0.3-0.3
		L51.4,0L51.8,0.3z"/>
	<path id="XMLID_147_" fill="#6C6D6F" d="M52.8,1.3h0.6v3.4h-0.6V1.3z"/>
	<path id="XMLID_149_" fill="#6C6D6F" d="M55,4.2c0.2,0,0.4,0,0.5-0.1c0.1-0.1,0.2-0.2,0.2-0.3c0-0.1,0-0.2-0.1-0.2
		c0-0.1-0.1-0.1-0.1-0.2c-0.1,0-0.1-0.1-0.2-0.1c-0.1,0-0.2-0.1-0.3-0.1c-0.1,0-0.2-0.1-0.3-0.1c-0.1,0-0.2-0.1-0.3-0.2
		c-0.1-0.1-0.1-0.2-0.2-0.3c0-0.1-0.1-0.2-0.1-0.4c0-0.3,0.1-0.5,0.3-0.7c0.2-0.2,0.5-0.3,0.9-0.3c0.2,0,0.4,0,0.6,0.1
		c0.2,0,0.3,0.1,0.4,0.2L56,2c-0.1-0.1-0.2-0.1-0.4-0.1s-0.3,0-0.4,0c-0.2,0-0.3,0-0.4,0.1C54.7,2,54.7,2,54.7,2.2
		c0,0.1,0,0.1,0,0.2c0,0.1,0.1,0.1,0.1,0.1s0.1,0.1,0.2,0.1c0.1,0,0.2,0.1,0.3,0.1c0.2,0.1,0.3,0.1,0.4,0.2C55.9,3,56,3,56.1,3.1
		s0.2,0.2,0.2,0.3c0,0.1,0.1,0.2,0.1,0.4c0,0.3-0.1,0.5-0.3,0.7c-0.2,0.2-0.5,0.3-0.9,0.3c-0.1,0-0.3,0-0.4,0c-0.1,0-0.2,0-0.3-0.1
		c-0.1,0-0.2-0.1-0.2-0.1c-0.1,0-0.1-0.1-0.2-0.1L54.2,4c0.1,0,0.2,0.1,0.4,0.1S54.8,4.2,55,4.2z"/>
</g>
</svg>
