<?xml version="1.0" encoding="utf-8"?>
<!-- Generator: Adobe Illustrator 19.0.0, SVG Export Plug-In . SVG Version: 6.00 Build 0)  -->
<svg version="1.2" baseProfile="tiny" id="Layer_1" xmlns="http://www.w3.org/2000/svg" xmlns:xlink="http://www.w3.org/1999/xlink"
	 x="0px" y="0px" viewBox="0 0 73.1 119.7" xml:space="preserve">
<g id="XMLID_3_">
	<path id="XMLID_370_" fill="#7A7A7A" d="M70,105.3l-33.2,14.4L2.3,105.3L0,23.4c0-9.4,1.6-11.2,10.4-11.2h52.3
		c8.8,0,10.4,1.8,10.4,11.2L70,105.3z"/>
	<g id="XMLID_8_">
		<g id="XMLID_331_">
			<path id="XMLID_155_" fill="#FFFFFF" d="M32.2,25c0.7,0,1.2,0.1,1.5,0.3s0.5,0.6,0.5,1.1c0,0.5-0.2,0.9-0.5,1.1
				c-0.4,0.2-0.9,0.4-1.5,0.4h-0.3v1.5h-1v-4.3c0.2,0,0.4-0.1,0.7-0.1C31.8,25,32,25,32.2,25z M32.3,25.8c-0.1,0-0.1,0-0.2,0
				c-0.1,0-0.1,0-0.2,0v1.3h0.3c0.3,0,0.6,0,0.8-0.1s0.3-0.3,0.3-0.5c0-0.1,0-0.2-0.1-0.3S33,26,33,25.9c-0.1,0-0.2-0.1-0.3-0.1
				S32.4,25.8,32.3,25.8z"/>
			<path id="XMLID_152_" fill="#FFFFFF" d="M35.9,25c0.7,0,1.2,0.1,1.5,0.4c0.4,0.2,0.5,0.6,0.5,1.1c0,0.3-0.1,0.6-0.2,0.7
				c-0.1,0.2-0.3,0.3-0.6,0.5c0.1,0.1,0.2,0.2,0.3,0.4c0.1,0.1,0.2,0.3,0.3,0.4c0.1,0.2,0.2,0.3,0.3,0.5c0.1,0.2,0.2,0.3,0.2,0.5
				h-1.1c-0.1-0.1-0.2-0.3-0.2-0.4c-0.1-0.1-0.2-0.3-0.3-0.4s-0.2-0.3-0.3-0.4c-0.1-0.1-0.2-0.2-0.3-0.3h-0.5v1.6h-1v-4.3
				c0.2,0,0.4-0.1,0.7-0.1C35.5,25,35.7,25,35.9,25z M36,25.8c-0.1,0-0.1,0-0.2,0c-0.1,0-0.1,0-0.2,0V27h0.3c0.4,0,0.6,0,0.8-0.1
				c0.2-0.1,0.2-0.3,0.2-0.5c0-0.2-0.1-0.4-0.2-0.5C36.5,25.9,36.3,25.8,36,25.8z"/>
			<path id="XMLID_150_" fill="#FFFFFF" d="M38.5,29.4V25h3v0.8h-2v0.9h1.8v0.8h-1.8v1.1h2.1v0.8H38.5z"/>
			<path id="XMLID_147_" fill="#FFFFFF" d="M43.2,28.6c0.1,0,0.3,0,0.3,0c0.1,0,0.2-0.1,0.2-0.1s0.1-0.1,0.1-0.1c0-0.1,0-0.1,0-0.2
				c0-0.1-0.1-0.3-0.2-0.4c-0.1-0.1-0.4-0.2-0.7-0.3c-0.1-0.1-0.3-0.1-0.4-0.2c-0.1-0.1-0.3-0.1-0.4-0.2c-0.1-0.1-0.2-0.2-0.3-0.4
				c-0.1-0.1-0.1-0.3-0.1-0.5c0-0.2,0-0.4,0.1-0.5c0.1-0.2,0.2-0.3,0.3-0.4c0.1-0.1,0.3-0.2,0.5-0.3c0.2-0.1,0.4-0.1,0.7-0.1
				c0.3,0,0.5,0,0.8,0.1c0.2,0.1,0.4,0.1,0.5,0.2L44.4,26c-0.1-0.1-0.3-0.1-0.4-0.2s-0.3-0.1-0.5-0.1c-0.2,0-0.4,0-0.5,0.1
				s-0.2,0.2-0.2,0.3c0,0.1,0,0.1,0.1,0.2c0,0.1,0.1,0.1,0.2,0.1c0.1,0,0.1,0.1,0.2,0.1s0.2,0.1,0.3,0.1c0.2,0.1,0.4,0.2,0.6,0.3
				s0.3,0.2,0.4,0.3c0.1,0.1,0.2,0.2,0.3,0.4c0.1,0.1,0.1,0.3,0.1,0.5c0,0.4-0.1,0.7-0.4,1c-0.3,0.2-0.7,0.3-1.3,0.3
				c-0.2,0-0.4,0-0.5,0c-0.2,0-0.3-0.1-0.4-0.1s-0.2-0.1-0.3-0.1c-0.1,0-0.2-0.1-0.2-0.1l0.3-0.8c0.1,0.1,0.3,0.1,0.5,0.2
				C42.6,28.6,42.9,28.6,43.2,28.6z"/>
			<path id="XMLID_145_" fill="#FFFFFF" d="M48.4,25v0.8h-1.3v3.5h-1v-3.5h-1.3V25H48.4z"/>
			<path id="XMLID_143_" fill="#FFFFFF" d="M48.7,25h1v4.4h-1V25z"/>
			<path id="XMLID_141_" fill="#FFFFFF" d="M52.5,25.8c-0.5,0-0.8,0.1-1,0.4c-0.2,0.3-0.3,0.6-0.3,1c0,0.2,0,0.4,0.1,0.6
				c0,0.2,0.1,0.3,0.2,0.5c0.1,0.1,0.2,0.2,0.4,0.3c0.2,0.1,0.3,0.1,0.5,0.1c0.1,0,0.2,0,0.3,0s0.1,0,0.2,0v-1.5h1v2.2
				c-0.1,0-0.3,0.1-0.6,0.1c-0.3,0.1-0.6,0.1-1,0.1c-0.3,0-0.6-0.1-0.9-0.2c-0.3-0.1-0.5-0.2-0.7-0.4c-0.2-0.2-0.3-0.4-0.4-0.7
				c-0.1-0.3-0.2-0.6-0.2-1c0-0.4,0.1-0.7,0.2-1c0.1-0.3,0.3-0.5,0.5-0.7c0.2-0.2,0.4-0.3,0.7-0.4c0.3-0.1,0.6-0.2,0.9-0.2
				c0.2,0,0.4,0,0.6,0c0.2,0,0.3,0.1,0.4,0.1s0.2,0.1,0.3,0.1c0.1,0,0.1,0.1,0.2,0.1L53.5,26c-0.1-0.1-0.3-0.1-0.5-0.2
				S52.7,25.8,52.5,25.8z"/>
			<path id="XMLID_139_" fill="#FFFFFF" d="M54.4,29.4V25h3v0.8h-2v0.9h1.8v0.8h-1.8v1.1h2.1v0.8H54.4z"/>
		</g>
		<g id="XMLID_235_">
			<path id="XMLID_137_" fill="#FFFFFF" d="M32.9,51.6c-0.7,0-1.3-0.2-1.6-0.6s-0.6-1-0.6-1.7c0-0.4,0.1-0.7,0.2-1
				c0.1-0.3,0.3-0.5,0.5-0.7c0.2-0.2,0.4-0.3,0.7-0.4c0.3-0.1,0.6-0.2,0.9-0.2c0.2,0,0.4,0,0.5,0c0.2,0,0.3,0.1,0.4,0.1
				c0.1,0,0.2,0.1,0.3,0.1c0.1,0,0.1,0.1,0.2,0.1L34,48.1c-0.1-0.1-0.3-0.1-0.5-0.2c-0.2-0.1-0.4-0.1-0.6-0.1c-0.2,0-0.3,0-0.4,0.1
				c-0.1,0.1-0.3,0.1-0.4,0.2c-0.1,0.1-0.2,0.3-0.3,0.4s-0.1,0.4-0.1,0.6c0,0.2,0,0.4,0.1,0.6c0,0.2,0.1,0.3,0.2,0.5
				s0.2,0.2,0.4,0.3c0.2,0.1,0.4,0.1,0.6,0.1c0.1,0,0.3,0,0.4,0c0.1,0,0.2,0,0.3-0.1c0.1,0,0.2,0,0.2-0.1c0.1,0,0.1-0.1,0.2-0.1
				l0.3,0.8c-0.1,0.1-0.3,0.2-0.6,0.2C33.5,51.5,33.2,51.6,32.9,51.6z"/>
			<path id="XMLID_134_" fill="#FFFFFF" d="M38.7,49.3c0,0.4-0.1,0.7-0.2,1c-0.1,0.3-0.3,0.5-0.5,0.7c-0.2,0.2-0.4,0.3-0.7,0.4
				c-0.3,0.1-0.6,0.1-0.9,0.1c-0.3,0-0.6,0-0.8-0.1c-0.3-0.1-0.5-0.2-0.7-0.4s-0.4-0.4-0.5-0.7c-0.1-0.3-0.2-0.6-0.2-1
				s0.1-0.7,0.2-1s0.3-0.5,0.5-0.7s0.4-0.3,0.7-0.4c0.3-0.1,0.5-0.1,0.8-0.1c0.3,0,0.6,0,0.8,0.1c0.3,0.1,0.5,0.2,0.7,0.4
				s0.4,0.4,0.5,0.7C38.6,48.6,38.7,48.9,38.7,49.3z M35.3,49.3c0,0.2,0,0.4,0.1,0.6c0.1,0.2,0.1,0.3,0.2,0.4
				c0.1,0.1,0.2,0.2,0.4,0.3c0.1,0.1,0.3,0.1,0.5,0.1c0.2,0,0.3,0,0.5-0.1s0.3-0.2,0.4-0.3c0.1-0.1,0.2-0.3,0.2-0.4
				c0.1-0.2,0.1-0.4,0.1-0.6s0-0.4-0.1-0.6s-0.1-0.3-0.2-0.4C37.2,48.1,37.1,48,37,48s-0.3-0.1-0.5-0.1c-0.2,0-0.4,0-0.5,0.1
				c-0.1,0.1-0.3,0.2-0.4,0.3c-0.1,0.1-0.2,0.3-0.2,0.4S35.3,49.1,35.3,49.3z"/>
			<path id="XMLID_131_" fill="#FFFFFF" d="M40.4,47c0.7,0,1.2,0.1,1.5,0.4c0.4,0.2,0.5,0.6,0.5,1.1c0,0.3-0.1,0.6-0.2,0.7
				c-0.1,0.2-0.3,0.3-0.6,0.5c0.1,0.1,0.2,0.2,0.3,0.4c0.1,0.1,0.2,0.3,0.3,0.4c0.1,0.2,0.2,0.3,0.3,0.5c0.1,0.2,0.2,0.3,0.2,0.5
				h-1.1c-0.1-0.1-0.2-0.3-0.2-0.4c-0.1-0.1-0.2-0.3-0.3-0.4s-0.2-0.3-0.3-0.4c-0.1-0.1-0.2-0.2-0.3-0.3h-0.5v1.6h-1v-4.3
				c0.2,0,0.4-0.1,0.7-0.1C40,47,40.2,47,40.4,47z M40.5,47.9c-0.1,0-0.1,0-0.2,0c-0.1,0-0.1,0-0.2,0v1.2h0.3c0.4,0,0.6,0,0.8-0.1
				c0.2-0.1,0.2-0.3,0.2-0.5c0-0.2-0.1-0.4-0.2-0.5C41,47.9,40.8,47.9,40.5,47.9z"/>
			<path id="XMLID_128_" fill="#FFFFFF" d="M44.3,47c0.7,0,1.2,0.1,1.5,0.3s0.5,0.6,0.5,1.1c0,0.5-0.2,0.9-0.5,1.1
				c-0.4,0.2-0.9,0.4-1.5,0.4H44v1.5h-1v-4.3c0.2,0,0.4-0.1,0.7-0.1C43.9,47,44.1,47,44.3,47z M44.4,47.9c-0.1,0-0.1,0-0.2,0
				c-0.1,0-0.1,0-0.2,0v1.3h0.3c0.3,0,0.6,0,0.8-0.1s0.3-0.3,0.3-0.5c0-0.1,0-0.2-0.1-0.3s-0.1-0.1-0.2-0.2c-0.1,0-0.2-0.1-0.3-0.1
				S44.5,47.9,44.4,47.9z"/>
			<path id="XMLID_125_" fill="#FFFFFF" d="M50.9,49.3c0,0.4-0.1,0.7-0.2,1c-0.1,0.3-0.3,0.5-0.5,0.7c-0.2,0.2-0.4,0.3-0.7,0.4
				c-0.3,0.1-0.6,0.1-0.9,0.1c-0.3,0-0.6,0-0.8-0.1c-0.3-0.1-0.5-0.2-0.7-0.4s-0.4-0.4-0.5-0.7c-0.1-0.3-0.2-0.6-0.2-1
				s0.1-0.7,0.2-1s0.3-0.5,0.5-0.7s0.4-0.3,0.7-0.4c0.3-0.1,0.5-0.1,0.8-0.1c0.3,0,0.6,0,0.8,0.1c0.3,0.1,0.5,0.2,0.7,0.4
				s0.4,0.4,0.5,0.7C50.8,48.6,50.9,48.9,50.9,49.3z M47.5,49.3c0,0.2,0,0.4,0.1,0.6c0.1,0.2,0.1,0.3,0.2,0.4
				c0.1,0.1,0.2,0.2,0.4,0.3c0.1,0.1,0.3,0.1,0.5,0.1c0.2,0,0.3,0,0.5-0.1s0.3-0.2,0.4-0.3c0.1-0.1,0.2-0.3,0.2-0.4
				c0.1-0.2,0.1-0.4,0.1-0.6s0-0.4-0.1-0.6s-0.1-0.3-0.2-0.4c-0.1-0.1-0.2-0.2-0.4-0.3s-0.3-0.1-0.5-0.1c-0.2,0-0.4,0-0.5,0.1
				c-0.1,0.1-0.3,0.2-0.4,0.3c-0.1,0.1-0.2,0.3-0.2,0.4S47.5,49.1,47.5,49.3z"/>
			<path id="XMLID_122_" fill="#FFFFFF" d="M52.6,47c0.7,0,1.2,0.1,1.5,0.4c0.4,0.2,0.5,0.6,0.5,1.1c0,0.3-0.1,0.6-0.2,0.7
				c-0.1,0.2-0.3,0.3-0.6,0.5c0.1,0.1,0.2,0.2,0.3,0.4c0.1,0.1,0.2,0.3,0.3,0.4c0.1,0.2,0.2,0.3,0.3,0.5c0.1,0.2,0.2,0.3,0.2,0.5
				h-1.1c-0.1-0.1-0.2-0.3-0.2-0.4c-0.1-0.1-0.2-0.3-0.3-0.4s-0.2-0.3-0.3-0.4c-0.1-0.1-0.2-0.2-0.3-0.3h-0.5v1.6h-1v-4.3
				c0.2,0,0.4-0.1,0.7-0.1C52.2,47,52.5,47,52.6,47z M52.7,47.9c-0.1,0-0.1,0-0.2,0c-0.1,0-0.1,0-0.2,0v1.2h0.3c0.4,0,0.6,0,0.8-0.1
				c0.2-0.1,0.2-0.3,0.2-0.5c0-0.2-0.1-0.4-0.2-0.5C53.2,47.9,53,47.9,52.7,47.9z"/>
			<path id="XMLID_119_" fill="#FFFFFF" d="M58.3,51.5c0-0.2-0.1-0.3-0.2-0.5c-0.1-0.2-0.1-0.3-0.2-0.5h-1.7
				c-0.1,0.2-0.1,0.3-0.2,0.5S56,51.3,56,51.5h-1c0.2-0.5,0.3-0.9,0.5-1.3c0.1-0.4,0.3-0.8,0.4-1.1s0.3-0.7,0.4-1s0.3-0.6,0.4-0.9
				h0.9c0.1,0.3,0.3,0.6,0.4,0.9s0.3,0.7,0.4,1c0.1,0.4,0.3,0.7,0.4,1.1s0.3,0.8,0.5,1.3H58.3z M57.2,48.1c0,0.1-0.1,0.2-0.1,0.3
				c0,0.1-0.1,0.2-0.1,0.4c-0.1,0.1-0.1,0.3-0.2,0.5c-0.1,0.2-0.1,0.4-0.2,0.5h1.3c-0.1-0.2-0.1-0.4-0.2-0.5
				c-0.1-0.2-0.1-0.3-0.2-0.5c-0.1-0.1-0.1-0.3-0.1-0.4S57.2,48.1,57.2,48.1z"/>
			<path id="XMLID_117_" fill="#FFFFFF" d="M62.3,47.1v0.8H61v3.5h-1v-3.5h-1.3v-0.8H62.3z"/>
			<path id="XMLID_113_" fill="#FFFFFF" d="M62.6,51.5v-4.4h3v0.8h-2v0.9h1.8v0.8h-1.8v1.1h2.1v0.8H62.6z"/>
		</g>
		<g id="XMLID_149_">
			<path id="XMLID_94_" fill="#FFFFFF" d="M32.2,70.5c0.7,0,1.2,0.1,1.5,0.3s0.5,0.6,0.5,1.1c0,0.5-0.2,0.9-0.5,1.1
				c-0.4,0.2-0.9,0.4-1.5,0.4h-0.3V75h-1v-4.3c0.2,0,0.4-0.1,0.7-0.1C31.8,70.5,32,70.5,32.2,70.5z M32.3,71.4c-0.1,0-0.1,0-0.2,0
				c-0.1,0-0.1,0-0.2,0v1.3h0.3c0.3,0,0.6,0,0.8-0.1s0.3-0.3,0.3-0.5c0-0.1,0-0.2-0.1-0.3S33,71.6,33,71.5c-0.1,0-0.2-0.1-0.3-0.1
				S32.4,71.4,32.3,71.4z"/>
			<path id="XMLID_91_" fill="#FFFFFF" d="M35.9,70.5c0.7,0,1.2,0.1,1.5,0.4c0.4,0.2,0.5,0.6,0.5,1.1c0,0.3-0.1,0.6-0.2,0.7
				c-0.1,0.2-0.3,0.3-0.6,0.5c0.1,0.1,0.2,0.2,0.3,0.4c0.1,0.1,0.2,0.3,0.3,0.4c0.1,0.2,0.2,0.3,0.3,0.5c0.1,0.2,0.2,0.3,0.2,0.5
				h-1.1c-0.1-0.1-0.2-0.3-0.2-0.4c-0.1-0.1-0.2-0.3-0.3-0.4s-0.2-0.3-0.3-0.4c-0.1-0.1-0.2-0.2-0.3-0.3h-0.5V75h-1v-4.3
				c0.2,0,0.4-0.1,0.7-0.1C35.5,70.5,35.7,70.5,35.9,70.5z M36,71.4c-0.1,0-0.1,0-0.2,0c-0.1,0-0.1,0-0.2,0v1.2h0.3
				c0.4,0,0.6,0,0.8-0.1c0.2-0.1,0.2-0.3,0.2-0.5c0-0.2-0.1-0.4-0.2-0.5C36.5,71.4,36.3,71.4,36,71.4z"/>
			<path id="XMLID_88_" fill="#FFFFFF" d="M38.5,75v-4.4h3v0.8h-2v0.9h1.8v0.8h-1.8v1.1h2.1V75H38.5z"/>
			<path id="XMLID_86_" fill="#FFFFFF" d="M43.1,70.6c0.1,0.1,0.2,0.3,0.3,0.5c0.1,0.2,0.2,0.4,0.3,0.7c0.1,0.2,0.2,0.5,0.3,0.7
				c0.1,0.2,0.2,0.5,0.3,0.7c0.1-0.2,0.2-0.5,0.3-0.7c0.1-0.2,0.2-0.5,0.3-0.7c0.1-0.2,0.2-0.5,0.3-0.7c0.1-0.2,0.2-0.4,0.3-0.5h0.9
				c0,0.3,0.1,0.6,0.1,1c0,0.4,0.1,0.7,0.1,1.1c0,0.4,0.1,0.8,0.1,1.2c0,0.4,0,0.8,0.1,1.1h-1c0-0.4,0-0.9-0.1-1.4
				c0-0.5-0.1-1-0.1-1.5c-0.1,0.2-0.2,0.4-0.3,0.6c-0.1,0.2-0.2,0.4-0.3,0.6s-0.2,0.4-0.3,0.6c-0.1,0.2-0.2,0.4-0.2,0.5h-0.7
				c-0.1-0.1-0.1-0.3-0.2-0.5c-0.1-0.2-0.2-0.4-0.3-0.6s-0.2-0.4-0.3-0.6c-0.1-0.2-0.2-0.4-0.3-0.6c0,0.5-0.1,1-0.1,1.5
				c0,0.5,0,1-0.1,1.4h-1c0-0.3,0-0.7,0.1-1.1c0-0.4,0-0.8,0.1-1.2c0-0.4,0.1-0.8,0.1-1.1c0-0.4,0.1-0.7,0.1-1H43.1z"/>
			<path id="XMLID_84_" fill="#FFFFFF" d="M47.3,70.6h1V75h-1V70.6z"/>
			<path id="XMLID_82_" fill="#FFFFFF" d="M50.6,75.1c-0.3,0-0.6,0-0.8-0.1s-0.4-0.2-0.6-0.4S49,74.2,49,74s-0.1-0.4-0.1-0.7v-2.7h1
				v2.6c0,0.2,0,0.3,0.1,0.5c0,0.1,0.1,0.2,0.2,0.3c0.1,0.1,0.2,0.1,0.3,0.2c0.1,0,0.2,0.1,0.3,0.1c0.2,0,0.4-0.1,0.6-0.2
				c0.1-0.1,0.2-0.4,0.2-0.8v-2.6h1v2.7c0,0.3,0,0.5-0.1,0.7c-0.1,0.2-0.2,0.4-0.3,0.6c-0.1,0.2-0.3,0.3-0.6,0.4
				C51.2,75,50.9,75.1,50.6,75.1z"/>
			<path id="XMLID_80_" fill="#FFFFFF" d="M54.2,70.6c0.1,0.1,0.2,0.3,0.3,0.5c0.1,0.2,0.2,0.4,0.3,0.7c0.1,0.2,0.2,0.5,0.3,0.7
				c0.1,0.2,0.2,0.5,0.3,0.7c0.1-0.2,0.2-0.5,0.3-0.7c0.1-0.2,0.2-0.5,0.3-0.7c0.1-0.2,0.2-0.5,0.3-0.7c0.1-0.2,0.2-0.4,0.3-0.5h0.9
				c0,0.3,0.1,0.6,0.1,1c0,0.4,0.1,0.7,0.1,1.1c0,0.4,0.1,0.8,0.1,1.2c0,0.4,0,0.8,0.1,1.1h-1c0-0.4,0-0.9-0.1-1.4
				c0-0.5-0.1-1-0.1-1.5c-0.1,0.2-0.2,0.4-0.3,0.6c-0.1,0.2-0.2,0.4-0.3,0.6s-0.2,0.4-0.3,0.6c-0.1,0.2-0.2,0.4-0.2,0.5H55
				c-0.1-0.1-0.1-0.3-0.2-0.5c-0.1-0.2-0.2-0.4-0.3-0.6s-0.2-0.4-0.3-0.6c-0.1-0.2-0.2-0.4-0.3-0.6c0,0.5-0.1,1-0.1,1.5
				c0,0.5,0,1-0.1,1.4h-1c0-0.3,0-0.7,0.1-1.1c0-0.4,0-0.8,0.1-1.2c0-0.4,0.1-0.8,0.1-1.1c0-0.4,0.1-0.7,0.1-1H54.2z"/>
		</g>
		<g id="XMLID_90_">
			<path id="XMLID_77_" fill="#7A7A7A" d="M25.7,0.1c1,0,1.7,0.2,2.3,0.5c0.5,0.4,0.8,0.9,0.8,1.6c0,0.5-0.1,0.8-0.3,1.1
				c-0.2,0.3-0.5,0.5-0.9,0.7c0.1,0.2,0.3,0.4,0.4,0.6s0.3,0.4,0.4,0.7s0.3,0.5,0.4,0.7c0.1,0.3,0.3,0.5,0.4,0.7h-1.7
				c-0.1-0.2-0.2-0.4-0.4-0.7s-0.3-0.4-0.4-0.6c-0.1-0.2-0.3-0.4-0.4-0.6c-0.1-0.2-0.3-0.4-0.4-0.5h-0.7v2.4h-1.5V0.2
				c0.3-0.1,0.7-0.1,1-0.1C25.1,0.1,25.4,0.1,25.7,0.1z M25.8,1.3c-0.1,0-0.2,0-0.3,0c-0.1,0-0.2,0-0.2,0v1.8h0.4
				c0.6,0,1-0.1,1.2-0.2c0.2-0.1,0.4-0.4,0.4-0.7c0-0.3-0.1-0.6-0.4-0.7S26.2,1.3,25.8,1.3z"/>
			<path id="XMLID_75_" fill="#7A7A7A" d="M29.6,6.7V0.2H34v1.2h-3v1.3h2.6v1.2H31v1.6h3.2v1.2H29.6z"/>
			<path id="XMLID_72_" fill="#7A7A7A" d="M40.6,3.4c0,0.6-0.1,1.1-0.3,1.5c-0.2,0.4-0.4,0.8-0.8,1.1s-0.7,0.5-1.2,0.6
				s-1,0.2-1.6,0.2c-0.3,0-0.6,0-0.9,0c-0.4,0-0.7-0.1-1-0.1V0.2c0.3-0.1,0.7-0.1,1.1-0.1c0.4,0,0.7,0,1,0c0.6,0,1.1,0.1,1.5,0.2
				c0.5,0.1,0.9,0.3,1.2,0.6c0.3,0.3,0.6,0.6,0.8,1C40.5,2.3,40.6,2.8,40.6,3.4z M36.3,5.5c0.1,0,0.2,0,0.2,0c0.1,0,0.2,0,0.3,0
				c0.7,0,1.3-0.2,1.6-0.6S39,4.1,39,3.4c0-0.7-0.2-1.2-0.5-1.6c-0.3-0.4-0.9-0.5-1.6-0.5c-0.1,0-0.2,0-0.3,0c-0.1,0-0.2,0-0.3,0
				V5.5z"/>
			<path id="XMLID_70_" fill="#7A7A7A" d="M41.3,6.7V0.2h4.4v1.2h-3v1.3h2.6v1.2h-2.6v1.6h3.2v1.2H41.3z"/>
			<path id="XMLID_67_" fill="#7A7A7A" d="M48.3,5.6c0.2,0,0.4,0,0.5-0.1c0.1,0,0.2-0.1,0.3-0.1c0.1-0.1,0.1-0.1,0.2-0.2
				c0-0.1,0-0.2,0-0.3c0-0.2-0.1-0.4-0.3-0.5s-0.6-0.3-1-0.5c-0.2-0.1-0.4-0.2-0.6-0.3c-0.2-0.1-0.4-0.2-0.6-0.4S46.5,3,46.4,2.8
				c-0.1-0.2-0.2-0.5-0.2-0.8s0.1-0.6,0.2-0.8c0.1-0.2,0.3-0.5,0.5-0.6c0.2-0.2,0.5-0.3,0.8-0.4s0.6-0.1,1-0.1c0.4,0,0.8,0,1.2,0.1
				c0.3,0.1,0.6,0.2,0.8,0.3l-0.4,1.2c-0.2-0.1-0.4-0.2-0.6-0.3c-0.2-0.1-0.5-0.1-0.8-0.1c-0.4,0-0.6,0-0.8,0.1
				c-0.2,0.1-0.2,0.2-0.2,0.5c0,0.1,0,0.2,0.1,0.3s0.1,0.2,0.2,0.2c0.1,0.1,0.2,0.1,0.4,0.2c0.1,0.1,0.3,0.1,0.5,0.2
				c0.3,0.1,0.6,0.3,0.9,0.4c0.3,0.1,0.5,0.3,0.6,0.4c0.2,0.2,0.3,0.4,0.4,0.6c0.1,0.2,0.1,0.5,0.1,0.8c0,0.6-0.2,1.1-0.6,1.4
				s-1.1,0.5-1.9,0.5c-0.3,0-0.6,0-0.8-0.1c-0.2,0-0.4-0.1-0.6-0.1c-0.2-0.1-0.3-0.1-0.5-0.2s-0.2-0.1-0.3-0.2l0.4-1.2
				c0.2,0.1,0.4,0.2,0.7,0.3C47.5,5.6,47.9,5.6,48.3,5.6z"/>
		</g>
		<g id="XMLID_10_">
			<path id="XMLID_52_" fill="#FFFFFF" d="M33.8,96.6v0.8h-2.9v-4.4h1v3.5H33.8z"/>
			<path id="XMLID_49_" fill="#FFFFFF" d="M37.2,97.5c0-0.2-0.1-0.3-0.2-0.5c-0.1-0.2-0.1-0.3-0.2-0.5h-1.7
				c-0.1,0.2-0.1,0.3-0.2,0.5s-0.1,0.3-0.2,0.5h-1c0.2-0.5,0.3-0.9,0.5-1.3c0.1-0.4,0.3-0.8,0.4-1.1s0.3-0.7,0.4-1s0.3-0.6,0.4-0.9
				h0.9c0.1,0.3,0.3,0.6,0.4,0.9s0.3,0.7,0.4,1c0.1,0.4,0.3,0.7,0.4,1.1s0.3,0.8,0.5,1.3H37.2z M36.1,94.1c0,0.1-0.1,0.2-0.1,0.3
				c0,0.1-0.1,0.2-0.1,0.4c-0.1,0.1-0.1,0.3-0.2,0.5c-0.1,0.2-0.1,0.4-0.2,0.5h1.3c-0.1-0.2-0.1-0.4-0.2-0.5
				c-0.1-0.2-0.1-0.3-0.2-0.5c-0.1-0.1-0.1-0.3-0.1-0.4S36.1,94.2,36.1,94.1z"/>
			<path id="XMLID_47_" fill="#FFFFFF" d="M41.4,97.5c-0.3-0.5-0.6-1-0.9-1.5c-0.3-0.5-0.7-1-1-1.4v2.9h-1v-4.4h0.8
				c0.1,0.1,0.3,0.3,0.5,0.5c0.2,0.2,0.3,0.4,0.5,0.6c0.2,0.2,0.3,0.5,0.5,0.7s0.3,0.5,0.5,0.7v-2.6h1v4.4H41.4z"/>
			<path id="XMLID_44_" fill="#FFFFFF" d="M46.8,95.3c0,0.4-0.1,0.7-0.2,1c-0.1,0.3-0.3,0.5-0.5,0.7c-0.2,0.2-0.5,0.3-0.8,0.4
				c-0.3,0.1-0.7,0.1-1,0.1c-0.2,0-0.4,0-0.6,0c-0.2,0-0.5,0-0.7-0.1v-4.3c0.2,0,0.5-0.1,0.7-0.1c0.2,0,0.5,0,0.6,0
				c0.4,0,0.7,0,1,0.1c0.3,0.1,0.6,0.2,0.8,0.4c0.2,0.2,0.4,0.4,0.5,0.7C46.7,94.6,46.8,94.9,46.8,95.3z M43.9,96.7c0,0,0.1,0,0.2,0
				c0.1,0,0.1,0,0.2,0c0.5,0,0.9-0.1,1.1-0.4c0.2-0.2,0.4-0.6,0.4-1c0-0.5-0.1-0.8-0.3-1c-0.2-0.2-0.6-0.4-1.1-0.4
				c-0.1,0-0.1,0-0.2,0c-0.1,0-0.1,0-0.2,0V96.7z"/>
			<path id="XMLID_42_" fill="#FFFFFF" d="M48.4,93.1c0.1,0.1,0.2,0.3,0.3,0.5c0.1,0.2,0.2,0.4,0.3,0.7c0.1,0.2,0.2,0.5,0.3,0.7
				c0.1,0.2,0.2,0.5,0.3,0.7c0.1-0.2,0.2-0.5,0.3-0.7c0.1-0.2,0.2-0.5,0.3-0.7c0.1-0.2,0.2-0.5,0.3-0.7c0.1-0.2,0.2-0.4,0.3-0.5h0.9
				c0,0.3,0.1,0.6,0.1,1c0,0.4,0.1,0.7,0.1,1.1c0,0.4,0.1,0.8,0.1,1.2c0,0.4,0,0.8,0.1,1.1h-1c0-0.4,0-0.9-0.1-1.4
				c0-0.5-0.1-1-0.1-1.5c-0.1,0.2-0.2,0.4-0.3,0.6c-0.1,0.2-0.2,0.4-0.3,0.6s-0.2,0.4-0.3,0.6c-0.1,0.2-0.2,0.4-0.2,0.5h-0.7
				c-0.1-0.1-0.1-0.3-0.2-0.5c-0.1-0.2-0.2-0.4-0.3-0.6s-0.2-0.4-0.3-0.6c-0.1-0.2-0.2-0.4-0.3-0.6c0,0.5-0.1,1-0.1,1.5
				c0,0.5,0,1-0.1,1.4h-1c0-0.3,0-0.7,0.1-1.1c0-0.4,0-0.8,0.1-1.2c0-0.4,0.1-0.8,0.1-1.1c0-0.4,0.1-0.7,0.1-1H48.4z"/>
			<path id="XMLID_39_" fill="#FFFFFF" d="M55.5,97.5c0-0.2-0.1-0.3-0.2-0.5c-0.1-0.2-0.1-0.3-0.2-0.5h-1.7
				c-0.1,0.2-0.1,0.3-0.2,0.5s-0.1,0.3-0.2,0.5h-1c0.2-0.5,0.3-0.9,0.5-1.3c0.1-0.4,0.3-0.8,0.4-1.1s0.3-0.7,0.4-1s0.3-0.6,0.4-0.9
				h0.9c0.1,0.3,0.3,0.6,0.4,0.9s0.3,0.7,0.4,1c0.1,0.4,0.3,0.7,0.4,1.1s0.3,0.8,0.5,1.3H55.5z M54.3,94.1c0,0.1-0.1,0.2-0.1,0.3
				c0,0.1-0.1,0.2-0.1,0.4C54,94.9,54,95,53.9,95.2c-0.1,0.2-0.1,0.4-0.2,0.5h1.3c-0.1-0.2-0.1-0.4-0.2-0.5
				c-0.1-0.2-0.1-0.3-0.2-0.5c-0.1-0.1-0.1-0.3-0.1-0.4S54.3,94.2,54.3,94.1z"/>
			<path id="XMLID_36_" fill="#FFFFFF" d="M58,93.1c0.7,0,1.2,0.1,1.5,0.4c0.4,0.2,0.5,0.6,0.5,1.1c0,0.3-0.1,0.6-0.2,0.7
				c-0.1,0.2-0.3,0.3-0.6,0.5c0.1,0.1,0.2,0.2,0.3,0.4c0.1,0.1,0.2,0.3,0.3,0.4c0.1,0.2,0.2,0.3,0.3,0.5c0.1,0.2,0.2,0.3,0.2,0.5
				h-1.1c-0.1-0.1-0.2-0.3-0.2-0.4c-0.1-0.1-0.2-0.3-0.3-0.4s-0.2-0.3-0.3-0.4c-0.1-0.1-0.2-0.2-0.3-0.3h-0.5v1.6h-1v-4.3
				c0.2,0,0.4-0.1,0.7-0.1C57.7,93.1,57.9,93.1,58,93.1z M58.1,93.9c-0.1,0-0.1,0-0.2,0c-0.1,0-0.1,0-0.2,0v1.2H58
				c0.4,0,0.6,0,0.8-0.1c0.2-0.1,0.2-0.3,0.2-0.5c0-0.2-0.1-0.4-0.2-0.5C58.7,93.9,58.4,93.9,58.1,93.9z"/>
			<path id="XMLID_34_" fill="#FFFFFF" d="M63.2,97.5c-0.1-0.1-0.2-0.3-0.3-0.5s-0.3-0.3-0.4-0.5c-0.1-0.2-0.3-0.3-0.4-0.5
				c-0.2-0.2-0.3-0.3-0.5-0.4v1.9h-1v-4.4h1v1.6c0.3-0.3,0.5-0.5,0.8-0.8s0.5-0.6,0.7-0.8h1.2c-0.3,0.4-0.6,0.7-0.9,1s-0.6,0.7-1,1
				c0.4,0.3,0.7,0.6,1,1c0.3,0.4,0.6,0.8,0.9,1.3H63.2z"/>
		</g>
	</g>
	<path id="XMLID_7_" fill="#C0966B" d="M21.1,97.8l-4.6,2l-4.8-2l-0.3-6.6c0-1.3,0.2-1.5,1.4-1.5h7.2c1.2,0,1.4,0.2,1.4,1.5
		L21.1,97.8z"/>
	<path id="XMLID_6_" fill="#FFCD70" d="M21.1,52.2l-4.6,2l-4.8-2l-0.3-6.6c0-1.3,0.2-1.5,1.4-1.5h7.2c1.2,0,1.4,0.2,1.4,1.5
		L21.1,52.2z"/>
	<path id="XMLID_5_" fill="#98C390" d="M21.1,30.9l-4.6,2l-4.8-2l-0.3-6.6c0-1.3,0.2-1.5,1.4-1.5h7.2c1.2,0,1.4,0.2,1.4,1.5
		L21.1,30.9z"/>
	<path id="XMLID_4_" fill="#FF8879" d="M21.1,75.2l-4.6,2l-4.8-2l-0.3-6.6c0-1.3,0.2-1.5,1.4-1.5h7.2c1.2,0,1.4,0.2,1.4,1.5
		L21.1,75.2z"/>
</g>
</svg>
