<?xml version="1.0" encoding="utf-8"?>
<!-- Generator: Adobe Illustrator 19.0.0, SVG Export Plug-In . SVG Version: 6.00 Build 0)  -->
<svg version="1.2" baseProfile="tiny" id="Layer_1" xmlns="http://www.w3.org/2000/svg" xmlns:xlink="http://www.w3.org/1999/xlink"
	 x="0px" y="0px" viewBox="0 0 65.3 25.4" xml:space="preserve">
<polygon id="XMLID_81_" fill="#C3A974" points="15.3,9.3 19.5,25.4 65.3,25.4 65.3,9.2 "/>
<g id="XMLID_36_">
	<path id="XMLID_116_" fill="#FFFFFF" d="M27.4,21.6c-0.4,0-0.9,0-1.3,0c-0.4,0-0.9-0.1-1.4-0.2v-7.9c0.4-0.1,0.8-0.1,1.2-0.2
		c0.4,0,0.9-0.1,1.2-0.1c0.5,0,1,0,1.4,0.1c0.4,0.1,0.8,0.2,1.1,0.4c0.3,0.2,0.6,0.4,0.7,0.7s0.3,0.7,0.3,1.1c0,0.7-0.3,1.2-0.9,1.5
		c0.5,0.2,0.9,0.5,1.1,0.8c0.2,0.3,0.3,0.7,0.3,1.1c0,0.9-0.3,1.5-0.9,1.9S28.6,21.6,27.4,21.6z M26.5,16.5h0.9c0.6,0,1-0.1,1.2-0.2
		c0.2-0.1,0.4-0.4,0.4-0.7c0-0.3-0.1-0.6-0.4-0.7c-0.3-0.1-0.6-0.2-1.1-0.2c-0.2,0-0.3,0-0.5,0c-0.2,0-0.3,0-0.5,0V16.5z M26.5,17.9
		V20c0.1,0,0.3,0,0.4,0c0.2,0,0.3,0,0.5,0c0.5,0,1-0.1,1.3-0.2c0.3-0.2,0.5-0.4,0.5-0.9c0-0.4-0.1-0.6-0.4-0.8
		c-0.3-0.2-0.7-0.2-1.2-0.2H26.5z"/>
	<path id="XMLID_120_" fill="#FFFFFF" d="M32.1,21.5v-8.2h5.5v1.5H34v1.6h3.2V18H34v2h3.9v1.5H32.1z"/>
	<path id="XMLID_122_" fill="#FFFFFF" d="M38.8,13.3h1.8v8.2h-1.8V13.3z"/>
	<path id="XMLID_124_" fill="#FFFFFF" d="M44.5,13.2c1.2,0,2.2,0.2,2.8,0.7c0.6,0.4,1,1.1,1,2c0,0.6-0.1,1-0.4,1.4
		c-0.3,0.4-0.6,0.6-1.1,0.8c0.2,0.2,0.3,0.4,0.5,0.7c0.2,0.3,0.4,0.5,0.5,0.8s0.3,0.6,0.5,0.9c0.2,0.3,0.3,0.6,0.5,0.9h-2
		c-0.1-0.3-0.3-0.5-0.5-0.8s-0.3-0.5-0.5-0.8c-0.2-0.3-0.3-0.5-0.5-0.7c-0.2-0.2-0.3-0.4-0.5-0.6h-0.9v3h-1.8v-8
		c0.4-0.1,0.8-0.1,1.2-0.2C43.8,13.2,44.1,13.2,44.5,13.2z M44.6,14.8c-0.1,0-0.3,0-0.4,0s-0.2,0-0.3,0V17h0.5
		c0.7,0,1.2-0.1,1.5-0.3c0.3-0.2,0.4-0.5,0.4-0.9c0-0.4-0.2-0.7-0.5-0.9C45.6,14.9,45.2,14.8,44.6,14.8z"/>
	<path id="XMLID_127_" fill="#FFFFFF" d="M55.3,21.5c-0.1-0.3-0.2-0.6-0.3-0.9s-0.2-0.6-0.3-0.9h-3.2c-0.1,0.3-0.2,0.6-0.3,0.9
		c-0.1,0.3-0.2,0.6-0.3,0.9H49c0.3-0.9,0.6-1.7,0.9-2.4c0.3-0.7,0.5-1.4,0.8-2.1c0.3-0.7,0.5-1.3,0.8-1.9c0.3-0.6,0.5-1.2,0.8-1.7
		H54c0.3,0.6,0.5,1.1,0.8,1.7c0.3,0.6,0.5,1.2,0.8,1.9c0.3,0.7,0.5,1.4,0.8,2.1s0.6,1.6,0.9,2.4H55.3z M53.1,15.2
		c0,0.1-0.1,0.3-0.2,0.5c-0.1,0.2-0.2,0.4-0.3,0.7c-0.1,0.3-0.2,0.6-0.3,0.9c-0.1,0.3-0.3,0.7-0.4,1h2.3c-0.1-0.4-0.2-0.7-0.4-1
		s-0.2-0.6-0.3-0.9c-0.1-0.3-0.2-0.5-0.3-0.7C53.2,15.4,53.1,15.3,53.1,15.2z"/>
</g>
<g id="XMLID_34_">
	<path id="XMLID_82_" fill="#6C6D6F" d="M35,0.8c0.2-0.1,0.4-0.2,0.6-0.3c0.2-0.1,0.4-0.3,0.5-0.4h0.4v3.4h-0.6V0.9
		C35.8,1,35.7,1,35.6,1.1s-0.3,0.1-0.4,0.2L35,0.8z"/>
	<path id="XMLID_84_" fill="#6C6D6F" d="M39.9,0.1c0.5,0,0.9,0.1,1.1,0.3c0.3,0.2,0.4,0.5,0.4,0.8c0,0.2,0,0.4-0.1,0.5
		C41.3,1.8,41.2,2,41,2c-0.1,0.1-0.3,0.2-0.5,0.2s-0.4,0.1-0.7,0.1h-0.3v1.2H39V0.2c0.1,0,0.3-0.1,0.5-0.1
		C39.6,0.1,39.8,0.1,39.9,0.1z M40,0.6c-0.2,0-0.3,0-0.4,0v1.1h0.3c0.3,0,0.5,0,0.7-0.1c0.2-0.1,0.2-0.2,0.2-0.5
		c0-0.1,0-0.2-0.1-0.3c0-0.1-0.1-0.1-0.2-0.2c-0.1,0-0.2-0.1-0.3-0.1C40.2,0.6,40.1,0.6,40,0.6z"/>
	<path id="XMLID_87_" fill="#6C6D6F" d="M44.3,3.5c0-0.1-0.1-0.3-0.1-0.4c0-0.1-0.1-0.3-0.1-0.4h-1.4c0,0.1-0.1,0.3-0.1,0.4
		c0,0.1-0.1,0.3-0.1,0.4h-0.6c0.1-0.4,0.2-0.7,0.4-1s0.2-0.6,0.3-0.9s0.2-0.5,0.3-0.8c0.1-0.2,0.2-0.5,0.3-0.7h0.6
		c0.1,0.2,0.2,0.5,0.3,0.7c0.1,0.2,0.2,0.5,0.3,0.8c0.1,0.3,0.2,0.6,0.3,0.9s0.2,0.6,0.4,1H44.3z M43.3,0.8
		c-0.1,0.2-0.2,0.4-0.3,0.6c-0.1,0.2-0.2,0.5-0.3,0.8h1.1c-0.1-0.3-0.2-0.6-0.3-0.8C43.5,1.1,43.4,0.9,43.3,0.8z"/>
	<path id="XMLID_90_" fill="#6C6D6F" d="M45.4,0.1H46v3.4h-0.6V0.1z"/>
	<path id="XMLID_92_" fill="#6C6D6F" d="M49.2,3.5c-0.1-0.2-0.2-0.4-0.4-0.6c-0.1-0.2-0.3-0.4-0.4-0.6c-0.1-0.2-0.3-0.4-0.4-0.6
		c-0.2-0.2-0.3-0.4-0.4-0.5v2.4h-0.6V0.1h0.5c0.1,0.1,0.3,0.3,0.4,0.5C48,0.8,48.1,1,48.3,1.2s0.3,0.4,0.4,0.6
		C48.8,2,49,2.2,49.1,2.4V0.1h0.6v3.4H49.2z"/>
	<path id="XMLID_94_" fill="#6C6D6F" d="M50.5,3.5V0.1h2.2v0.5h-1.6v0.8h1.4V2h-1.4v1h1.7v0.5H50.5z"/>
	<path id="XMLID_107_" fill="#6C6D6F" d="M55.6,3v0.5h-2.1V0.1H54V3H55.6z"/>
</g>
</svg>
