<svg xmlns="http://www.w3.org/2000/svg" width="87.547" height="22.783" viewBox="0 0 87.547 22.783">
  <g id="dalima_office_novo" transform="translate(12.003 2.003)">
    <g id="Group_69" data-name="Group 69" transform="translate(-12.003 -2.003)">
      <g id="Group_26" data-name="Group 26" transform="translate(0 0)">
        <circle id="Ellipse_1" data-name="Ellipse 1" cx="2.153" cy="2.153" r="2.153" transform="translate(39.152 18.477)" fill="#2d314e"/>
        <path id="Path_28" data-name="Path 28" d="M146.069,333.774v8.474H111.084a8.474,8.474,0,0,1-8.474-8.474h0a8.474,8.474,0,0,1,8.474-8.474H137.6A8.474,8.474,0,0,1,146.069,333.774Z" transform="translate(-102.61 -325.3)" fill="#2d314e" opacity="0.92"/>
        <path id="OFFICE_MAPUTO" data-name="OFFICE MAPUTO" d="M.844-1.388a1.26,1.26,0,0,0,.05.368.841.841,0,0,0,.144.282.637.637,0,0,0,.23.182.725.725,0,0,0,.312.064.728.728,0,0,0,.31-.064.633.633,0,0,0,.232-.182.841.841,0,0,0,.144-.282,1.26,1.26,0,0,0,.05-.368,1.28,1.28,0,0,0-.05-.37.838.838,0,0,0-.144-.284.633.633,0,0,0-.232-.182.728.728,0,0,0-.31-.064.706.706,0,0,0-.312.066.657.657,0,0,0-.23.184.838.838,0,0,0-.144.284A1.265,1.265,0,0,0,.844-1.388Zm2.116,0a1.706,1.706,0,0,1-.106.626,1.287,1.287,0,0,1-.29.452,1.191,1.191,0,0,1-.438.274A1.591,1.591,0,0,1,1.58.056a1.551,1.551,0,0,1-.536-.092A1.232,1.232,0,0,1,.6-.31a1.281,1.281,0,0,1-.3-.452A1.678,1.678,0,0,1,.2-1.388a1.624,1.624,0,0,1,.112-.626,1.334,1.334,0,0,1,.3-.454,1.242,1.242,0,0,1,.44-.276,1.511,1.511,0,0,1,.526-.092,1.551,1.551,0,0,1,.536.092,1.219,1.219,0,0,1,.44.276,1.3,1.3,0,0,1,.3.454A1.678,1.678,0,0,1,2.96-1.388ZM3.48,0V-2.772H5.336v.524H4.1v.58H5.2v.524H4.1V0Zm2.3,0V-2.772H7.632v.524H6.4v.58H7.5v.524H6.4V0Zm2.3-2.772H8.7V0H8.072ZM10.6.056A1.347,1.347,0,0,1,9.57-.32a1.5,1.5,0,0,1-.354-1.068A1.642,1.642,0,0,1,9.324-2a1.323,1.323,0,0,1,.3-.456,1.238,1.238,0,0,1,.448-.282,1.616,1.616,0,0,1,.564-.1,1.808,1.808,0,0,1,.32.026,2.075,2.075,0,0,1,.252.06,1.244,1.244,0,0,1,.18.07q.072.036.1.056l-.18.5a1.51,1.51,0,0,0-.3-.116,1.422,1.422,0,0,0-.386-.048.853.853,0,0,0-.282.048.638.638,0,0,0-.244.154.767.767,0,0,0-.17.274,1.15,1.15,0,0,0-.064.408,1.456,1.456,0,0,0,.042.358.759.759,0,0,0,.136.286.653.653,0,0,0,.246.19.875.875,0,0,0,.368.07A1.677,1.677,0,0,0,10.9-.512a1.812,1.812,0,0,0,.192-.038A1.008,1.008,0,0,0,11.24-.6l.116-.052.172.5a1.462,1.462,0,0,1-.372.144A2.168,2.168,0,0,1,10.6.056ZM11.928,0V-2.772H13.8v.524H12.552V-1.7H13.66v.512H12.552v.668h1.34V0ZM1.056,3.228q.072.132.166.326t.2.42q.1.226.2.462l.188.444L2,4.436q.1-.236.2-.462t.2-.42q.094-.194.166-.326h.568q.04.276.074.618t.06.712q.026.37.048.742t.038.7H2.744q-.012-.4-.032-.88t-.06-.96l-.161.372q-.088.2-.175.408t-.167.39l-.136.318H1.578L1.442,5.33q-.08-.186-.167-.39T1.1,4.532L.94,4.16q-.04.484-.06.96T.848,6H.24q.016-.328.038-.7t.048-.742q.026-.37.06-.712T.46,3.228ZM5.768,6q-.046-.144-.1-.3l-.106-.3H4.48l-.105.3q-.053.152-.1.3H3.628q.157-.448.3-.828T4.2,4.456q.134-.336.265-.638t.271-.59h.591q.137.288.269.59t.267.638q.135.336.275.716t.3.828Zm-.75-2.144q-.021.06-.061.164t-.092.24q-.051.136-.115.3T4.621,4.9h.793q-.064-.18-.123-.345t-.113-.3l-.094-.24Q5.043,3.915,5.018,3.856ZM7.624,3.2a1.734,1.734,0,0,1,.952.218.79.79,0,0,1,.332.714.8.8,0,0,1-.336.722,1.739,1.739,0,0,1-.96.222h-.2V6H6.792V3.268a3.53,3.53,0,0,1,.432-.056Q7.452,3.2,7.624,3.2Zm.04.532q-.068,0-.134,0l-.114.008v.8h.2A1.062,1.062,0,0,0,8.1,4.452a.338.338,0,0,0,.164-.328.394.394,0,0,0-.042-.192A.319.319,0,0,0,8.1,3.81a.54.54,0,0,0-.19-.064A1.569,1.569,0,0,0,7.664,3.728Zm2.788,2.328a1.4,1.4,0,0,1-.5-.082.939.939,0,0,1-.35-.228.911.911,0,0,1-.2-.348,1.43,1.43,0,0,1-.066-.446V3.228h.624V4.9a.94.94,0,0,0,.038.286.527.527,0,0,0,.1.192.371.371,0,0,0,.16.106.636.636,0,0,0,.206.032.5.5,0,0,0,.37-.14.653.653,0,0,0,.142-.476V3.228H11.6V4.952a1.41,1.41,0,0,1-.068.448.917.917,0,0,1-.208.35.933.933,0,0,1-.356.226A1.475,1.475,0,0,1,10.452,6.056Zm3.8-2.828V3.76h-.836V6h-.624V3.76h-.836V3.228Zm.832,1.384a1.26,1.26,0,0,0,.05.368.841.841,0,0,0,.144.282.637.637,0,0,0,.23.182.788.788,0,0,0,.622,0,.633.633,0,0,0,.232-.182.841.841,0,0,0,.144-.282,1.26,1.26,0,0,0,.05-.368,1.28,1.28,0,0,0-.05-.37.838.838,0,0,0-.144-.284.633.633,0,0,0-.232-.182.728.728,0,0,0-.31-.064.706.706,0,0,0-.312.066.657.657,0,0,0-.23.184.838.838,0,0,0-.144.284A1.265,1.265,0,0,0,15.084,4.612Zm2.116,0a1.706,1.706,0,0,1-.106.626,1.287,1.287,0,0,1-.29.452,1.191,1.191,0,0,1-.438.274,1.591,1.591,0,0,1-.546.092,1.551,1.551,0,0,1-.536-.092,1.232,1.232,0,0,1-.44-.274,1.281,1.281,0,0,1-.3-.452,1.678,1.678,0,0,1-.108-.626,1.624,1.624,0,0,1,.112-.626,1.334,1.334,0,0,1,.3-.454,1.242,1.242,0,0,1,.44-.276,1.511,1.511,0,0,1,.526-.092,1.551,1.551,0,0,1,.536.092,1.219,1.219,0,0,1,.44.276,1.3,1.3,0,0,1,.3.454A1.678,1.678,0,0,1,17.2,4.612Z" transform="translate(16.727 6.749)" fill="#d4cba8"/>
        <g id="Group_25" data-name="Group 25" transform="translate(4.519 3.82)">
          <path id="Path_29" data-name="Path 29" d="M111.163,337.621H108.2a3.477,3.477,0,0,1-.832-.084,1.137,1.137,0,0,1-.89-.883,3.406,3.406,0,0,1-.085-.826v-5.535a3.417,3.417,0,0,1,.085-.827,1.137,1.137,0,0,1,.89-.883,3.558,3.558,0,0,1,.832-.083h2.961a4.416,4.416,0,0,1,1.777.361,4.61,4.61,0,0,1,2.424,2.424,4.553,4.553,0,0,1,0,3.553,4.61,4.61,0,0,1-2.424,2.424,4.416,4.416,0,0,1-1.777.361m-2.961-8.8a3.207,3.207,0,0,0-.753.074.816.816,0,0,0-.656.651,3.067,3.067,0,0,0-.075.747v5.53a3.048,3.048,0,0,0,.075.746.816.816,0,0,0,.656.651,3.212,3.212,0,0,0,.753.074h2.961a4.111,4.111,0,0,0,1.648-.334,4.292,4.292,0,0,0,2.257-2.257,4.226,4.226,0,0,0,0-3.3h0a4.281,4.281,0,0,0-2.257-2.257,4.092,4.092,0,0,0-1.648-.335Z" transform="translate(-106.394 -328.5)" fill="#d4cba8"/>
          <path id="Path_30" data-name="Path 30" d="M112.091,330.256a2.3,2.3,0,0,1,.927.188,2.422,2.422,0,0,1,1.269,1.269,2.389,2.389,0,0,1,0,1.856,2.434,2.434,0,0,1-.513.756,2.383,2.383,0,0,1-.756.511,2.3,2.3,0,0,1-.927.189h-1.606a1.8,1.8,0,0,1-.429-.044.53.53,0,0,1-.419-.416,1.765,1.765,0,0,1-.044-.427v-3a1.76,1.76,0,0,1,.044-.425.574.574,0,0,1,.145-.271.584.584,0,0,1,.275-.146,1.8,1.8,0,0,1,.429-.042Zm-.041,4.36a1.96,1.96,0,0,0,1.82-1.2,1.884,1.884,0,0,0,.155-.766,1.933,1.933,0,0,0-.155-.772,2.011,2.011,0,0,0-.422-.635,1.986,1.986,0,0,0-.628-.427,1.942,1.942,0,0,0-.771-.155h-1.519a2.668,2.668,0,0,0-.271.011.221.221,0,0,0-.145.059.243.243,0,0,0-.056.146,2.54,2.54,0,0,0-.011.268v2.987a2.557,2.557,0,0,0,.011.268.236.236,0,0,0,.056.145.221.221,0,0,0,.145.06c.067.007.157.01.271.01Z" transform="translate(-105.766 -328.151)" fill="#d4cba8"/>
        </g>
      </g>
      <rect id="Rectangle_46" data-name="Rectangle 46" width="43.251" height="11.475" transform="translate(44.296 2.99)" fill="none"/>
    </g>
  </g>
</svg>
