<?xml version="1.0" encoding="utf-8"?>
<!-- Generator: Adobe Illustrator 19.0.0, SVG Export Plug-In . SVG Version: 6.00 Build 0)  -->
<svg version="1.1" id="Layer_1" xmlns="http://www.w3.org/2000/svg" xmlns:xlink="http://www.w3.org/1999/xlink" x="0px" y="0px"
	 viewBox="0 0 468 99" style="enable-background:new 0 0 468 99;" xml:space="preserve">
<style type="text/css">
	.st0{fill:#999999;}
</style>
<g id="XMLID_42_">
	<g id="XMLID_171_">
		<path id="XMLID_185_" class="st0" d="M27.9,8.1c1.8,3,3.7,6.7,5.9,11.1c2.2,4.4,4.3,9,6.6,13.8c2.2,4.8,4.4,9.7,6.6,14.7
			c2.2,5,4.2,9.6,6,13.8c1.8-4.2,3.8-8.8,6-13.8c2.2-5,4.3-9.9,6.6-14.7c2.2-4.8,4.4-9.4,6.6-13.8c2.2-4.4,4.1-8.1,5.9-11.1h13.6
			c0.7,6.1,1.4,12.5,2.1,19.3c0.6,6.8,1.2,13.8,1.8,20.9c0.5,7.1,1,14.3,1.5,21.5c0.4,7.2,0.8,14.3,1.2,21.1H83.2
			c-0.3-9.6-0.7-19.6-1.2-29.8c-0.4-10.2-1.1-20.1-2-29.7c-0.9,1.8-1.9,4-3.1,6.6c-1.2,2.6-2.5,5.3-3.8,8.3c-1.4,3-2.7,6.1-4.1,9.3
			c-1.4,3.2-2.8,6.3-4.1,9.3c-1.3,3-2.5,5.8-3.6,8.4c-1.1,2.6-2.1,4.8-2.9,6.6H47.1c-0.8-1.8-1.8-4.1-2.9-6.7
			c-1.1-2.6-2.3-5.4-3.6-8.4c-1.3-3-2.7-6.1-4.1-9.3c-1.4-3.2-2.8-6.3-4.1-9.2c-1.4-2.9-2.6-5.7-3.8-8.3c-1.2-2.6-2.2-4.8-3.1-6.5
			c-0.9,9.6-1.6,19.5-2,29.7C23,71.4,22.6,81.4,22.3,91H7.5c0.3-6.9,0.7-14,1.2-21.3c0.4-7.3,0.9-14.6,1.5-21.8
			c0.5-7.2,1.1-14.2,1.8-21c0.6-6.8,1.3-13,2.1-18.8H27.9z"/>
		<path id="XMLID_182_" class="st0" d="M162.9,91c-1.1-3.3-2.3-6.5-3.5-9.7c-1.2-3.2-2.4-6.5-3.5-9.8h-35c-1.1,3.3-2.3,6.6-3.4,9.9
			c-1.2,3.2-2.3,6.4-3.4,9.6H98.4c3.1-8.9,6.1-17,8.8-24.5c2.8-7.5,5.5-14.6,8.2-21.3c2.7-6.7,5.3-13.1,7.9-19.1
			c2.6-6.1,5.3-12,8.1-17.9h14.4c2.8,5.9,5.5,11.9,8.1,17.9c2.6,6.1,5.3,12.4,8,19.1c2.7,6.7,5.4,13.8,8.3,21.3
			c2.8,7.5,5.8,15.7,8.9,24.5H162.9z M138.4,24.1c-1.8,4.2-3.9,9.4-6.3,15.4c-2.4,6.1-4.8,12.6-7.4,19.7h27.3
			c-2.6-7.1-5-13.7-7.4-19.9C142.2,33.3,140.2,28.2,138.4,24.1z"/>
		<path id="XMLID_179_" class="st0" d="M205.2,7.3c12,0,21.3,2.2,27.7,6.6c6.4,4.4,9.6,11.2,9.6,20.6c0,4.9-0.9,9-2.6,12.5
			c-1.7,3.5-4.2,6.3-7.5,8.5c-3.3,2.2-7.3,3.8-12,4.8c-4.7,1-10.1,1.6-16.1,1.6h-7.5V91h-15.1V9.3c3.5-0.8,7.4-1.3,11.7-1.6
			C197.7,7.4,201.6,7.3,205.2,7.3z M206.3,20.3c-3.8,0-7,0.1-9.5,0.4v28.2h7.3c7.3,0,12.8-1,16.7-3.1c3.9-2,5.9-5.9,5.9-11.5
			c0-2.7-0.5-5-1.6-6.8c-1-1.8-2.5-3.3-4.3-4.3c-1.8-1-4-1.8-6.5-2.2C211.9,20.5,209.2,20.3,206.3,20.3z"/>
		<path id="XMLID_177_" class="st0" d="M280.5,92.8c-5.7,0-10.5-0.8-14.6-2.5s-7.4-3.9-10.1-6.9c-2.7-2.9-4.6-6.4-5.9-10.4
			c-1.3-4-1.9-8.4-1.9-13.2V8.1h15.2v50.4c0,3.7,0.4,7,1.3,9.6c0.8,2.7,2,4.8,3.6,6.5s3.4,2.9,5.5,3.7c2.1,0.8,4.5,1.2,7.1,1.2
			c2.6,0,5-0.4,7.2-1.2c2.2-0.8,4-2,5.6-3.7c1.6-1.7,2.8-3.8,3.6-6.5c0.8-2.7,1.3-5.9,1.3-9.6V8.1h15.2v51.8c0,4.8-0.7,9.2-2,13.2
			c-1.3,4-3.3,7.5-6,10.4c-2.7,3-6.1,5.2-10.2,6.9C291,92,286.1,92.8,280.5,92.8z"/>
		<path id="XMLID_175_" class="st0" d="M382.6,8.1v13h-25.5V91H342V21.1h-25.5v-13H382.6z"/>
		<path id="XMLID_172_" class="st0" d="M460.5,49.5c0,7.1-1.1,13.4-3.2,18.8c-2.1,5.4-5,10-8.6,13.6c-3.6,3.6-7.9,6.4-12.7,8.2
			c-4.9,1.8-10,2.8-15.6,2.8s-10.7-0.9-15.6-2.8c-4.9-1.8-9.2-4.6-12.8-8.2c-3.6-3.6-6.5-8.2-8.7-13.6c-2.2-5.4-3.2-11.7-3.2-18.8
			c0-7.1,1.1-13.3,3.2-18.7c2.2-5.4,5.1-9.9,8.8-13.6c3.7-3.7,8-6.4,12.9-8.3c4.9-1.8,10-2.8,15.4-2.8c5.4,0,10.6,0.9,15.4,2.8
			c4.9,1.8,9.1,4.6,12.7,8.3c3.6,3.7,6.5,8.2,8.7,13.6C459.4,36.2,460.5,42.4,460.5,49.5z M395.8,49.5c0,4.5,0.6,8.7,1.7,12.4
			c1.1,3.7,2.7,6.9,4.8,9.5c2.1,2.6,4.7,4.6,7.7,6c3,1.4,6.5,2.2,10.3,2.2c3.7,0,7.1-0.7,10.2-2.2c3-1.4,5.6-3.4,7.7-6
			c2.1-2.6,3.7-5.7,4.8-9.5c1.1-3.7,1.7-7.8,1.7-12.4s-0.6-8.7-1.7-12.4c-1.1-3.7-2.7-6.9-4.8-9.5c-2.1-2.6-4.7-4.6-7.7-6
			c-3-1.4-6.4-2.2-10.2-2.2c-3.8,0-7.3,0.7-10.3,2.2c-3,1.4-5.6,3.5-7.7,6.1c-2.1,2.6-3.7,5.8-4.8,9.5
			C396.3,40.8,395.8,45,395.8,49.5z"/>
	</g>
</g>
</svg>
