<?xml version="1.0" encoding="utf-8"?>
<!-- Generator: Adobe Illustrator 19.0.0, SVG Export Plug-In . SVG Version: 6.00 Build 0)  -->
<svg version="1.2" baseProfile="tiny" id="Layer_1" xmlns="http://www.w3.org/2000/svg" xmlns:xlink="http://www.w3.org/1999/xlink"
	 x="0px" y="0px" viewBox="0 0 65.3 25.4" xml:space="preserve">
<polygon id="XMLID_36_" fill="#C3A974" points="0,9.3 4.3,25.4 65.3,25.4 65.3,9.2 "/>
<g id="XMLID_34_">
	<path id="XMLID_121_" fill="#FFFFFF" d="M13,12.6c0.1,0.3,0.3,0.6,0.5,1c0.2,0.4,0.4,0.8,0.6,1.2c0.2,0.4,0.4,0.9,0.6,1.4
		c0.2,0.5,0.4,0.9,0.6,1.3c0.2-0.4,0.4-0.8,0.6-1.3s0.4-0.9,0.6-1.4s0.4-0.9,0.6-1.2c0.2-0.4,0.3-0.7,0.5-1H19
		c0.1,0.5,0.2,1.1,0.2,1.8s0.1,1.4,0.2,2.1s0.1,1.5,0.1,2.2c0,0.7,0.1,1.4,0.1,2.1h-1.8c0-0.8-0.1-1.7-0.1-2.6
		c0-0.9-0.1-1.9-0.2-2.8c-0.1,0.3-0.3,0.7-0.5,1.1c-0.2,0.4-0.3,0.8-0.5,1.2c-0.2,0.4-0.3,0.8-0.5,1.1c-0.2,0.4-0.3,0.7-0.4,0.9
		h-1.3c-0.1-0.3-0.2-0.6-0.4-0.9c-0.2-0.4-0.3-0.7-0.5-1.1c-0.2-0.4-0.3-0.8-0.5-1.2c-0.2-0.4-0.3-0.8-0.5-1.1
		c-0.1,0.9-0.1,1.9-0.2,2.8c0,0.9-0.1,1.8-0.1,2.6h-1.8c0-0.6,0.1-1.3,0.1-2.1s0.1-1.5,0.1-2.2s0.1-1.4,0.2-2.1s0.1-1.3,0.2-1.8H13z
		"/>
	<path id="XMLID_123_" fill="#FFFFFF" d="M26.3,20.7c-0.1-0.3-0.2-0.6-0.3-0.9s-0.2-0.6-0.3-0.9h-3.2c-0.1,0.3-0.2,0.6-0.3,0.9
		c-0.1,0.3-0.2,0.6-0.3,0.9h-1.9c0.3-0.9,0.6-1.7,0.9-2.4c0.3-0.7,0.5-1.4,0.8-2.1c0.3-0.7,0.5-1.3,0.8-1.9c0.3-0.6,0.5-1.2,0.8-1.7
		H25c0.3,0.6,0.5,1.1,0.8,1.7c0.3,0.6,0.5,1.2,0.8,1.9c0.3,0.7,0.5,1.4,0.8,2.1s0.6,1.6,0.9,2.4H26.3z M24.1,14.4
		c0,0.1-0.1,0.3-0.2,0.5c-0.1,0.2-0.2,0.4-0.3,0.7c-0.1,0.3-0.2,0.6-0.3,0.9c-0.1,0.3-0.3,0.7-0.4,1h2.3c-0.1-0.4-0.2-0.7-0.4-1
		s-0.2-0.6-0.3-0.9c-0.1-0.3-0.2-0.5-0.3-0.7C24.2,14.7,24.2,14.6,24.1,14.4z"/>
	<path id="XMLID_126_" fill="#FFFFFF" d="M31.3,12.5c1.2,0,2.1,0.2,2.8,0.6c0.6,0.4,1,1.1,1,2.1c0,1-0.3,1.7-1,2.1
		c-0.7,0.4-1.6,0.7-2.8,0.7h-0.6v2.7h-1.8v-8c0.4-0.1,0.8-0.1,1.3-0.2C30.6,12.5,31,12.5,31.3,12.5z M31.5,14.1c-0.1,0-0.3,0-0.4,0
		s-0.2,0-0.3,0v2.4h0.6c0.6,0,1.1-0.1,1.4-0.3c0.3-0.2,0.5-0.5,0.5-1c0-0.2,0-0.4-0.1-0.6c-0.1-0.1-0.2-0.3-0.4-0.4
		c-0.2-0.1-0.3-0.2-0.6-0.2C32,14.1,31.7,14.1,31.5,14.1z"/>
	<path id="XMLID_129_" fill="#FFFFFF" d="M39.2,20.9c-0.6,0-1.1-0.1-1.5-0.2c-0.4-0.2-0.8-0.4-1-0.7c-0.3-0.3-0.5-0.6-0.6-1
		c-0.1-0.4-0.2-0.8-0.2-1.3v-5.1h1.8v4.9c0,0.3,0,0.6,0.1,0.8s0.2,0.4,0.3,0.6c0.1,0.1,0.3,0.2,0.5,0.3s0.4,0.1,0.6,0.1
		c0.4,0,0.8-0.1,1.1-0.4c0.3-0.3,0.4-0.7,0.4-1.4v-4.9h1.8v5.1c0,0.5-0.1,0.9-0.2,1.3c-0.1,0.4-0.3,0.7-0.6,1
		c-0.3,0.3-0.6,0.5-1,0.7C40.3,20.8,39.8,20.9,39.2,20.9z"/>
	<path id="XMLID_131_" fill="#FFFFFF" d="M49.9,12.6v1.6h-2.4v6.6h-1.8v-6.6h-2.4v-1.6H49.9z"/>
	<path id="XMLID_133_" fill="#FFFFFF" d="M58.1,16.7c0,0.7-0.1,1.3-0.3,1.8s-0.5,1-0.8,1.3c-0.4,0.4-0.8,0.6-1.3,0.8
		c-0.5,0.2-1,0.3-1.6,0.3c-0.6,0-1.1-0.1-1.6-0.3c-0.5-0.2-0.9-0.4-1.3-0.8c-0.4-0.4-0.7-0.8-0.9-1.3S50,17.4,50,16.7
		c0-0.7,0.1-1.3,0.3-1.8s0.5-1,0.9-1.3c0.4-0.4,0.8-0.6,1.3-0.8c0.5-0.2,1-0.3,1.5-0.3c0.6,0,1.1,0.1,1.6,0.3
		c0.5,0.2,0.9,0.5,1.3,0.8c0.4,0.4,0.7,0.8,0.9,1.3S58.1,16,58.1,16.7z M51.9,16.7c0,0.4,0,0.8,0.1,1.1c0.1,0.3,0.2,0.6,0.4,0.8
		c0.2,0.2,0.4,0.4,0.7,0.5c0.3,0.1,0.6,0.2,0.9,0.2c0.3,0,0.6-0.1,0.9-0.2c0.3-0.1,0.5-0.3,0.7-0.5s0.3-0.5,0.4-0.8
		c0.1-0.3,0.1-0.7,0.1-1.1c0-0.4,0-0.8-0.1-1.1s-0.2-0.6-0.4-0.8c-0.2-0.2-0.4-0.4-0.7-0.5c-0.3-0.1-0.6-0.2-0.9-0.2
		c-0.3,0-0.6,0.1-0.9,0.2c-0.3,0.1-0.5,0.3-0.7,0.5c-0.2,0.2-0.3,0.5-0.4,0.8S51.9,16.3,51.9,16.7z"/>
</g>
<g id="XMLID_80_">
	<path id="XMLID_81_" fill="#6C6D6F" d="M32,2c0.2-0.1,0.4-0.2,0.6-0.3c0.2-0.1,0.4-0.3,0.5-0.4h0.4v3.4h-0.6V2.1
		c-0.1,0.1-0.2,0.1-0.3,0.2s-0.3,0.1-0.4,0.2L32,2z"/>
	<path id="XMLID_83_" fill="#6C6D6F" d="M36.6,1.3v2.1H37v0.5h-0.4v0.8H36V3.9h-1.5V3.5c0.1-0.1,0.2-0.3,0.3-0.5
		c0.1-0.2,0.2-0.4,0.4-0.6c0.1-0.2,0.3-0.4,0.4-0.6s0.3-0.4,0.4-0.5H36.6z M36,2.1c-0.1,0.1-0.2,0.2-0.2,0.3
		c-0.1,0.1-0.2,0.2-0.2,0.3c-0.1,0.1-0.2,0.2-0.2,0.4c-0.1,0.1-0.1,0.2-0.2,0.4H36V2.1z"/>
	<path id="XMLID_86_" fill="#6C6D6F" d="M39.7,1.3c0.5,0,0.9,0.1,1.1,0.3c0.3,0.2,0.4,0.5,0.4,0.8c0,0.2,0,0.4-0.1,0.5
		c-0.1,0.1-0.2,0.3-0.3,0.3c-0.1,0.1-0.3,0.2-0.5,0.2s-0.4,0.1-0.7,0.1h-0.3v1.2h-0.6V1.4c0.1,0,0.3-0.1,0.5-0.1
		C39.4,1.3,39.6,1.3,39.7,1.3z M39.8,1.8c-0.2,0-0.3,0-0.4,0V3h0.3c0.3,0,0.5,0,0.7-0.1c0.2-0.1,0.2-0.2,0.2-0.5
		c0-0.1,0-0.2-0.1-0.3c0-0.1-0.1-0.1-0.2-0.2c-0.1,0-0.2-0.1-0.3-0.1C40,1.8,39.9,1.8,39.8,1.8z"/>
	<path id="XMLID_89_" fill="#6C6D6F" d="M44.1,4.7c0-0.1-0.1-0.3-0.1-0.4c0-0.1-0.1-0.3-0.1-0.4h-1.4c0,0.1-0.1,0.3-0.1,0.4
		c0,0.1-0.1,0.3-0.1,0.4h-0.6c0.1-0.4,0.2-0.7,0.4-1s0.2-0.6,0.3-0.9s0.2-0.5,0.3-0.8c0.1-0.2,0.2-0.5,0.3-0.7h0.6
		c0.1,0.2,0.2,0.5,0.3,0.7c0.1,0.2,0.2,0.5,0.3,0.8c0.1,0.3,0.2,0.6,0.3,0.9s0.2,0.6,0.4,1H44.1z M43.1,2c-0.1,0.2-0.2,0.4-0.3,0.6
		c-0.1,0.2-0.2,0.5-0.3,0.8h1.1c-0.1-0.3-0.2-0.6-0.3-0.8C43.2,2.4,43.2,2.1,43.1,2z"/>
	<path id="XMLID_92_" fill="#6C6D6F" d="M45.2,1.3h0.6v3.4h-0.6V1.3z"/>
	<path id="XMLID_94_" fill="#6C6D6F" d="M48.9,4.7c-0.1-0.2-0.2-0.4-0.4-0.6c-0.1-0.2-0.3-0.4-0.4-0.6C48,3.2,47.9,3,47.7,2.8
		c-0.2-0.2-0.3-0.4-0.4-0.5v2.4h-0.6V1.3h0.5c0.1,0.1,0.3,0.3,0.4,0.5C47.7,2,47.9,2.2,48,2.4s0.3,0.4,0.4,0.6
		c0.1,0.2,0.3,0.4,0.4,0.6V1.3h0.6v3.4H48.9z"/>
	<path id="XMLID_107_" fill="#6C6D6F" d="M50.3,4.7V1.3h2.2v0.5h-1.6v0.8h1.4v0.5h-1.4v1h1.7v0.5H50.3z M52.2,0.3l-0.8,0.8l-0.3-0.3
		L51.9,0L52.2,0.3z"/>
	<path id="XMLID_117_" fill="#6C6D6F" d="M53.2,1.3h0.6v3.4h-0.6V1.3z"/>
	<path id="XMLID_119_" fill="#6C6D6F" d="M55.5,4.2c0.2,0,0.4,0,0.5-0.1c0.1-0.1,0.2-0.2,0.2-0.3c0-0.1,0-0.2-0.1-0.2
		c0-0.1-0.1-0.1-0.1-0.2c-0.1,0-0.1-0.1-0.2-0.1c-0.1,0-0.2-0.1-0.3-0.1c-0.1,0-0.2-0.1-0.3-0.1c-0.1,0-0.2-0.1-0.3-0.2
		c-0.1-0.1-0.1-0.2-0.2-0.3c0-0.1-0.1-0.2-0.1-0.4c0-0.3,0.1-0.5,0.3-0.7c0.2-0.2,0.5-0.3,0.9-0.3c0.2,0,0.4,0,0.6,0.1
		c0.2,0,0.3,0.1,0.4,0.2L56.4,2c-0.1-0.1-0.2-0.1-0.4-0.1s-0.3,0-0.4,0c-0.2,0-0.3,0-0.4,0.1C55.2,2,55.1,2,55.1,2.2
		c0,0.1,0,0.1,0,0.2c0,0.1,0.1,0.1,0.1,0.1s0.1,0.1,0.2,0.1c0.1,0,0.2,0.1,0.3,0.1c0.2,0.1,0.3,0.1,0.4,0.2C56.3,3,56.4,3,56.5,3.1
		s0.2,0.2,0.2,0.3c0,0.1,0.1,0.2,0.1,0.4c0,0.3-0.1,0.5-0.3,0.7c-0.2,0.2-0.5,0.3-0.9,0.3c-0.1,0-0.3,0-0.4,0c-0.1,0-0.2,0-0.3-0.1
		c-0.1,0-0.2-0.1-0.2-0.1c-0.1,0-0.1-0.1-0.2-0.1L54.6,4c0.1,0,0.2,0.1,0.4,0.1S55.3,4.2,55.5,4.2z"/>
</g>
</svg>
