<svg id="ponto_final_novo" xmlns="http://www.w3.org/2000/svg" width="165.487" height="85.241" viewBox="0 0 165.487 85.241">
  <path id="Path_10" data-name="Path 10" d="M195.427,293.825a3.123,3.123,0,1,1-3.117-3.312A3.209,3.209,0,0,1,195.427,293.825Z" transform="translate(-167.277 -211.885)" fill="#2d314e" opacity="0.92"/>
  <g id="Group_18" data-name="Group 18" transform="translate(111.718 0)">
    <rect id="Rectangle_10" data-name="Rectangle 10" width="51.75" height="21.994"/>
    <text id="_6.5x3" data-name="6.5x3" transform="translate(6.921 13.525)" fill="#fff" font-size="13" font-family="Ubuntu-Bold, Ubuntu" font-weight="700" letter-spacing="-0.01em"><tspan x="0" y="0">6.5x3</tspan></text>
  </g>
  <g id="Group_45" data-name="Group 45" transform="translate(28.509 21.904)">
    <path id="Path_59" data-name="Path 59" d="M303.819,299.383l-103.506-1.572,2.736-27.536h108.8l1.92,19.156Z" transform="translate(-176.793 -268.355)" fill="#9fa1a4" opacity="0.5"/>
    <path id="Path_60" data-name="Path 60" d="M316.659,298.674H191.628V269.566H326.715v19.156Z" transform="translate(-191.628 -269.566)" fill="#bdd8f1"/>
    <path id="Path_61" data-name="Path 61" d="M237.8,276.64v9.951l10.056-9.951Z" transform="translate(-112.767 -257.483)" fill="#fff"/>
  </g>
  <text id="PONTO_FINAL" data-name="PONTO FINAL" transform="translate(95.012 42.368)" font-size="11" font-family="Ubuntu-Bold, Ubuntu" font-weight="700" letter-spacing="0.009em"><tspan x="-37.571" y="0">PONTO FINAL</tspan></text>
  <circle id="Ellipse_22" data-name="Ellipse 22" cx="22.782" cy="22.782" r="22.782" transform="translate(2.007 14.09)" fill="#eee9de"/>
  <path id="Path_92" data-name="Path 92" d="M181.1,290.728a24.789,24.789,0,1,1,44.143,15.492c-4.544,5.668-19.013,23.037-19.013,23.037s-15.148-17.369-19.693-23.034A24.694,24.694,0,0,1,181.1,290.728Z" transform="translate(-181.1 -253.857)" fill="#2d314e" opacity="0.92"/>
  <circle id="Ellipse_23" data-name="Ellipse 23" cx="22.782" cy="22.782" r="22.782" transform="translate(2.007 14.09)" fill="#ff8879"/>
  <text id="_04" data-name="04" transform="translate(14.433 37.042)" fill="#231f20" font-size="13" font-family="Ubuntu-Bold, Ubuntu" font-weight="700" letter-spacing="0.009em"><tspan x="0" y="0">04</tspan></text>
</svg>
